<svg width="41" height="41" viewBox="0 0 41 41" fill="none" xmlns="http://www.w3.org/2000/svg">
<path d="M19.2728 36.0001C19.2498 35.982 19.2292 35.9549 19.2029 35.9467C18.2545 35.645 17.7622 35.0319 17.6833 34.0564C17.4932 31.6791 17.3031 29.3014 17.113 26.9235C17.0407 26.0253 16.9577 25.1286 16.8763 24.1909C16.5344 24.1909 16.1999 24.1909 15.8655 24.1909C15.2384 24.1909 14.7971 23.7652 14.8513 23.143C14.9335 22.239 15.0658 21.3349 15.18 20.4309C15.3543 19.0609 15.5474 17.6933 15.7019 16.3216C15.8178 15.2886 16.3462 14.562 17.2938 14.4001C17.851 14.3048 18.437 14.3418 19.0073 14.3771C19.1939 14.3895 19.3928 14.5596 19.544 14.7018C19.945 15.0815 20.3239 15.4858 20.7685 15.9395C21.029 15.6576 21.2912 15.4135 21.5081 15.1332C21.9947 14.4996 22.6119 14.2292 23.4082 14.3418C23.6597 14.3788 23.926 14.3295 24.1733 14.3788C25.1053 14.5645 25.6707 15.268 25.794 16.2888C26.0003 18.0048 26.2304 19.7175 26.4515 21.4319C26.518 21.9497 26.5936 22.4658 26.6487 22.9844C26.7309 23.7413 26.3134 24.1884 25.5458 24.1892H24.627C24.5645 24.9084 24.5013 25.6077 24.4437 26.308C24.3248 27.7364 24.2071 29.1647 24.0904 30.5931C24.0082 31.6344 23.875 32.6732 23.8438 33.7162C23.8093 34.8667 23.34 35.6459 22.2289 36.0034L19.2728 36.0001Z" fill="#313131"/>
<path d="M5 22.8307C5.08218 22.2661 5.17341 21.7023 5.24655 21.1369C5.4479 19.6049 5.64185 18.073 5.83991 16.5402C5.86253 16.2956 5.89764 16.0523 5.94511 15.8113C6.05123 15.3964 6.29058 15.0279 6.62641 14.7623C6.96224 14.4967 7.37598 14.3487 7.80408 14.341C8.16322 14.341 8.52237 14.3492 8.88069 14.341C9.02962 14.3343 9.1782 14.3603 9.31604 14.4171C9.45388 14.4739 9.57765 14.5601 9.67868 14.6697C10.074 15.0716 10.4701 15.4726 10.9024 15.9099C11.2525 15.5565 11.6083 15.2351 11.9198 14.8752C12.2716 14.4692 12.6833 14.2908 13.22 14.3401C13.561 14.3722 13.907 14.3459 14.2982 14.3459C13.5914 15.7702 13.6728 17.2643 13.4419 18.6968C13.22 20.0693 13.0909 21.4574 12.9093 22.8373C12.8306 23.4088 12.928 23.9908 13.1885 24.5056C13.449 25.0204 13.8601 25.4436 14.3672 25.7187C14.5505 25.8181 14.6138 25.9192 14.5908 26.123C14.3804 28.1284 14.1799 30.1353 13.9703 32.1415C13.8454 33.3291 13.049 34.0317 11.8475 34.0317H9.97044C8.73112 34.0317 7.94462 33.283 7.83368 32.0544C7.66931 30.2907 7.477 28.5303 7.29784 26.7682C7.22716 26.0655 7.16306 25.362 7.09238 24.6593C7.07759 24.5089 7.05046 24.3593 7.02745 24.195C6.2878 24.1432 5.43393 24.4235 5.00082 23.5112L5 22.8307Z" fill="#239456"/>
<path d="M27.238 14.3434C27.5404 14.3434 27.8462 14.3722 28.142 14.3377C28.7798 14.2637 29.2729 14.4749 29.6797 14.9697C29.9459 15.2927 30.2648 15.5721 30.624 15.9353C30.8541 15.6814 31.0628 15.4324 31.2913 15.2031C32.2865 14.2021 32.017 14.3533 33.373 14.3459C33.5978 14.3339 33.8233 14.3469 34.0452 14.3845C34.9731 14.5867 35.5138 15.2672 35.6379 16.2855C35.8672 18.165 36.1179 20.0413 36.3579 21.9184C36.4113 22.3351 36.4779 22.751 36.4968 23.1693C36.5231 23.7569 36.0957 24.1794 35.5106 24.1859C35.1736 24.1859 34.8367 24.1859 34.4709 24.1859C34.3888 24.9757 34.3066 25.7475 34.2244 26.5175C34.0863 27.8621 33.9494 29.2066 33.8135 30.5512C33.7494 31.1717 33.705 31.7963 33.6088 32.4127C33.536 32.8673 33.3022 33.2807 32.9501 33.5774C32.5981 33.8741 32.1511 34.0345 31.6907 34.0293C31.0135 34.0293 30.3371 34.0293 29.6599 34.0293C28.4214 34.0293 27.639 33.2839 27.5232 32.0486C27.3588 30.275 27.164 28.504 26.9832 26.732C26.9832 26.7222 26.9832 26.7115 26.9791 26.7016C26.8624 26.1715 26.943 25.8157 27.487 25.4688C28.391 24.8935 28.7198 23.932 28.594 22.8677C28.3335 20.6733 28.0401 18.4823 27.7648 16.2929C27.6826 15.6493 27.5585 15.0214 27.2109 14.4568L27.238 14.3434Z" fill="#239456"/>
<path d="M30.6189 4.50337C32.8001 4.50337 34.5391 6.26707 34.5358 8.46964C34.5358 10.6451 32.7647 12.3817 30.5598 12.3775C28.3885 12.3775 26.6561 10.604 26.6602 8.39485C26.6643 6.23501 28.4312 4.49762 30.6189 4.50337Z" fill="#239456"/>
<path d="M16.8147 8.44089C16.8114 7.92212 16.9112 7.40786 17.1083 6.928C17.3055 6.44813 17.596 6.01221 17.963 5.64556C18.33 5.27892 18.7662 4.98885 19.2463 4.79221C19.7263 4.59558 20.2407 4.49629 20.7594 4.50011C21.2775 4.49825 21.7908 4.59909 22.2696 4.79682C22.7485 4.99454 23.1834 5.28522 23.5492 5.65205C23.915 6.01888 24.2045 6.45458 24.4009 6.93397C24.5973 7.41337 24.6968 7.92694 24.6935 8.445C24.6939 8.9633 24.5916 9.47653 24.3924 9.95505C24.1933 10.4336 23.9013 10.8679 23.5334 11.2329C23.1655 11.598 22.7288 11.8865 22.2488 12.0818C21.7687 12.2772 21.2547 12.3754 20.7364 12.371C20.2207 12.3712 19.7099 12.2696 19.2335 12.0721C18.757 11.8746 18.3242 11.585 17.9599 11.2199C17.5956 10.8548 17.3069 10.4214 17.1104 9.94451C16.9138 9.46764 16.8134 8.95667 16.8147 8.44089Z" fill="#313131"/>
<path d="M14.8447 8.44828C14.8446 8.96625 14.742 9.47908 14.5429 9.95724C14.3437 10.4354 14.052 10.8694 13.6844 11.2344C13.3168 11.5993 12.8807 11.8879 12.4011 12.0835C11.9215 12.2791 11.4079 12.378 10.89 12.3743C10.3719 12.373 9.85925 12.2692 9.38146 12.069C8.90366 11.8687 8.4702 11.5759 8.10605 11.2074C7.74191 10.8388 7.45426 10.4019 7.25968 9.92177C7.06511 9.44162 6.96746 8.92772 6.97234 8.40966C6.97234 6.23668 8.74255 4.49599 10.9442 4.5001C13.0991 4.50339 14.8463 6.27119 14.8447 8.44828Z" fill="#239456"/>
</svg>
