<svg width="40" height="29" viewBox="0 0 40 29" fill="none" xmlns="http://www.w3.org/2000/svg">
<g clip-path="url(#clip0_370_9796)">
<path d="M30.655 4.42383V12.508C30.5444 12.5023 30.6312 12.4837 30.5 12.5C28.7111 12.7223 27.015 13.5052 25.7821 14.7775L21.538 12.0717C21.1433 11.82 20.7494 11.5667 20.3269 11.2968C20.3789 11.2476 20.4336 11.2011 20.4905 11.1577C23.8421 8.93148 27.1955 6.70575 30.5507 4.48053C30.5837 4.45861 30.6205 4.44273 30.655 4.42383Z" fill="#313131"/>
<path d="M15.3198 0.499628C19.772 0.499628 24.2242 0.499628 28.6764 0.499628C29.5716 0.499628 30.2919 1.04472 30.5411 1.86803C30.6063 2.08425 30.5523 2.18631 30.376 2.30349C25.9683 5.22174 21.5624 8.14351 17.1582 11.0688C16.6082 11.434 16.0544 11.7931 15.5119 12.1681C15.3618 12.2716 15.2628 12.261 15.1164 12.1681C10.1545 8.86828 5.19205 5.57329 0.229102 2.28308C0.0670219 2.17573 0.0355067 2.08122 0.088783 1.89373C0.331153 1.0485 1.05001 0.50114 1.96471 0.500384C6.41591 0.498872 10.8676 0.49862 15.3198 0.499628Z" fill="#313131"/>
<path d="M23.5 20.9995C23.524 21.319 23.5591 21.433 23.6231 21.7469H1.96063C1.07594 21.7469 0.351082 21.2139 0.101208 20.4103C0.0344255 20.1941 0.0741988 20.0807 0.273797 19.9567C3.19324 18.1064 6.10918 16.2499 9.02161 14.3871C9.96483 13.7823 10.9118 13.1895 11.8498 12.5794C12.0163 12.4706 12.1297 12.4653 12.3 12.5794C13.0661 13.1041 13.851 13.6038 14.6149 14.1323C15.0959 14.4649 15.5416 14.4657 16.0226 14.1323C16.7955 13.5993 17.5871 13.0928 18.3645 12.5651C18.5146 12.466 18.6114 12.4698 18.7599 12.5651C20.7109 13.8125 22.6636 15.0587 24.6181 16.3036C23.8264 17.6402 23.3829 19.3408 23.5 20.9995Z" fill="#313131"/>
<path d="M10.3333 11.2825L0 17.8674V4.42383L10.3333 11.2825Z" fill="#313131"/>
<path d="M39.8402 19.386C39.0618 16.1987 37.0926 14.2229 33.9325 13.4588C33.6736 13.3968 33.4012 13.3598 33.1169 13.3076C33.1169 13.3076 32.3402 13.2713 31.9553 13.2872C31.836 13.2918 31.7542 13.3023 31.7452 13.3197C31.713 13.3291 31.6796 13.3334 31.6461 13.3326C29.8572 13.5549 28.3152 14.2844 27.0824 15.5568C26.9323 15.708 26.7895 15.8673 26.6539 16.0346C26.3804 16.3628 26.1338 16.7127 25.9163 17.0809C25.1269 18.4206 24.8065 19.9168 24.9236 21.5755C24.9476 21.895 24.9917 22.2127 25.0556 22.5266C25.0958 22.7332 25.1548 22.9357 25.232 23.1314C25.2422 23.1613 25.2548 23.1903 25.2695 23.2183C25.2815 23.2433 25.2815 23.2554 25.2942 23.2803C25.3907 23.6118 25.5189 23.9331 25.6769 24.2397C27.2347 27.3651 30.423 28.9709 33.856 28.3736C34.6726 28.2338 35.4562 27.9423 36.1671 27.514C36.5378 27.3023 36.6489 26.9039 36.4755 26.5803C36.3029 26.2439 35.957 26.132 35.5616 26.2938C35.3882 26.3694 35.2276 26.445 35.0671 26.5304C33.8606 27.1157 32.4946 27.2778 31.1862 26.9909C28.8037 26.4798 27.0659 24.7319 26.4873 22.5258C26.2708 21.6914 26.2213 20.822 26.3418 19.9682C26.4443 19.2103 26.6922 18.4797 27.0719 17.8173C27.3916 17.2573 27.7968 16.7514 28.2725 16.3181C29.2882 15.3853 30.5801 14.8147 31.9493 14.6942C32.5242 14.6455 33.103 14.6814 33.6676 14.8008C36.5941 15.4237 38.8707 18.026 38.6111 21.6367C38.5963 21.8296 38.5504 22.0188 38.4753 22.1969C38.3408 22.4768 38.1156 22.7022 37.8369 22.8358C37.5582 22.9694 37.2426 23.0033 36.9423 22.9318C36.6419 22.8639 36.3724 22.6975 36.1761 22.4585C35.9863 22.2126 35.8809 21.9112 35.876 21.5997C35.8512 20.7681 35.8385 19.9183 35.876 19.0715C35.9007 18.3624 35.4062 17.8891 34.6896 18.2996C33.8004 17.5769 32.8295 17.3539 31.9455 17.4847C31.5246 17.5468 31.1189 17.6879 30.7494 17.9005C30.342 18.1346 29.9848 18.4481 29.6989 18.8228C29.5852 18.9724 29.4847 19.1318 29.3988 19.2991C29.1438 19.7987 29.0124 20.3529 29.0155 20.9147C29.0186 21.4764 29.1563 22.0291 29.4168 22.5258C29.5761 22.8279 29.7806 23.1035 30.0231 23.3431C31.3332 24.6502 33.483 24.7999 35.0033 23.2062L35.1766 23.393C35.6477 23.943 36.3126 24.2867 37.0308 24.3516C37.7481 24.4004 38.4564 24.1683 39.008 23.7037C39.576 23.2312 39.8484 22.5961 39.9963 21.8983V20.2109C39.9512 19.9342 39.9145 19.6605 39.8402 19.386ZM33.8957 22.3625C33.7085 22.5543 33.4855 22.707 33.2396 22.8117C32.9936 22.9164 32.7295 22.9711 32.4625 22.9726C32.1734 22.9776 31.8866 22.9194 31.6219 22.8019C31.3573 22.6845 31.121 22.5105 30.9295 22.2922C30.5882 21.9116 30.3989 21.4171 30.3983 20.9041C30.3977 20.6091 30.4596 20.3173 30.5799 20.0483C30.6799 19.8245 30.8195 19.6209 30.9918 19.4473C31.1812 19.2549 31.4064 19.1019 31.6545 18.9972C31.9026 18.8926 32.1688 18.8382 32.4378 18.8372C32.9825 18.8369 33.5057 19.0512 33.8957 19.4344C34.2817 19.825 34.4992 20.353 34.5013 20.9041C34.5003 21.1754 34.4464 21.4438 34.3425 21.694C34.2386 21.9442 34.0868 22.1714 33.8957 22.3625Z" fill="#239456"/>
</g>
<defs>
<clipPath id="clip0_370_9796">
<rect width="40" height="28" fill="white" transform="translate(0 0.5)"/>
</clipPath>
</defs>
</svg>
