<svg width="16" height="17" viewBox="0 0 16 17" fill="none" xmlns="http://www.w3.org/2000/svg">
<path d="M7.50051 0.524414H8.50265C8.53671 0.535474 8.57162 0.543713 8.60704 0.549049C10.1244 0.664712 11.5066 1.16244 12.7196 2.07773C14.8149 3.65819 15.9293 5.76978 15.9974 8.39915C16.0433 10.1792 15.5235 11.8056 14.4575 13.232C12.9196 15.2897 10.8539 16.4083 8.28259 16.5169C6.31339 16.6004 4.54377 15.9991 3.00841 14.7632C1.4459 13.5021 0.475913 11.8736 0.121823 9.88983C0.0704632 9.6038 0.0408181 9.31402 0.000732422 9.0259V8.02585C0.011779 7.98677 0.0202865 7.94702 0.0262029 7.90684C0.13268 6.54101 0.553997 5.27957 1.32064 4.14465C2.60421 2.24058 4.37466 1.06139 6.64159 0.64801C6.92553 0.594145 7.2149 0.5645 7.50051 0.524414ZM4.10116 5.21276C3.36333 5.21276 2.60379 5.21276 1.84425 5.21735C1.80041 5.21735 1.73945 5.27205 1.71565 5.31673C1.44737 5.81619 1.25019 6.35068 1.12981 6.9047C1.04922 7.27758 0.999114 7.65631 0.933139 8.04714H3.74248C3.86399 7.09803 3.98257 6.16103 4.10283 5.21276H4.10116ZM11.9003 5.21276C12.0206 6.16312 12.1392 7.10388 12.2582 8.04422H15.0358C15.0358 8.01583 15.0399 8.00247 15.0391 7.98493C14.9737 7.04309 14.7126 6.12524 14.2725 5.29001C14.2503 5.24825 14.1668 5.21652 14.1113 5.2161C13.5267 5.21067 12.9455 5.21276 12.3626 5.21276H11.9003ZM4.71831 8.04631H7.52222V5.21276C6.74097 5.21276 5.97141 5.21276 5.20184 5.21777C5.16426 5.21777 5.10288 5.28458 5.09453 5.32842C4.99724 5.83868 4.89369 6.3481 4.8202 6.86211C4.76466 7.25086 4.75088 7.64587 4.71789 8.04631H4.71831ZM11.2761 8.0509C11.2498 7.141 11.132 6.23604 10.9245 5.34972C10.899 5.24282 10.8614 5.209 10.7504 5.20983C10.0376 5.21568 9.32482 5.21276 8.61163 5.21318C8.56737 5.21318 8.52269 5.21902 8.48636 5.22153V8.0509H11.2761ZM0.964456 9.00127C0.964456 9.03843 0.964456 9.05931 0.964456 9.07977C1.02983 10.0004 1.28292 10.8979 1.70813 11.7171C1.73193 11.7638 1.8192 11.8031 1.87766 11.8039C2.38207 11.8106 2.8869 11.8077 3.39173 11.8077H4.09615C3.97881 10.8686 3.86232 9.93868 3.7454 9.00127H0.964456ZM11.9087 11.8077C12.6511 11.8077 13.4119 11.8098 14.1698 11.8031C14.2178 11.8031 14.2858 11.7438 14.3109 11.6945C14.568 11.2008 14.7587 10.6753 14.8779 10.1316C14.9552 9.76289 15.0065 9.38876 15.0717 9.00419H12.2607C12.1421 9.94203 12.026 10.869 11.9083 11.8077H11.9087ZM5.10831 11.7972H7.5218V9.00586H4.73C4.75554 9.94717 4.88223 10.883 5.10789 11.7972H5.10831ZM8.48302 8.99959V11.7972H10.8973C11.1233 10.881 11.2493 9.94298 11.2731 8.99959H8.48302ZM5.39309 12.7501C5.44236 12.8754 5.48411 12.9923 5.53172 13.1059C5.83069 13.8211 6.19146 14.498 6.76811 15.035C6.98566 15.2375 7.22742 15.4062 7.51971 15.4981V12.7505L5.39309 12.7501ZM8.47718 15.4868C9.22043 15.3436 10.4297 13.7748 10.5858 12.753H8.47718V15.4868ZM5.41271 4.27409H7.52264V1.55996C6.71842 1.77667 5.86743 2.9379 5.41271 4.27409ZM10.6322 4.26866C10.4067 3.81394 10.2113 3.38469 9.98373 2.97423C9.7382 2.52995 9.42378 2.13327 9.00706 1.83346C8.84755 1.71863 8.66675 1.63345 8.47759 1.52405V4.27033L10.6322 4.26866ZM10.4234 15.1431C11.732 14.668 12.8002 13.8746 13.6599 12.7447C12.9751 12.7447 12.3258 12.7447 11.6765 12.7484C11.6536 12.7529 11.6321 12.7628 11.6139 12.7773C11.5956 12.7919 11.5812 12.8106 11.5717 12.8319C11.3003 13.6537 10.9349 14.4316 10.4259 15.144L10.4234 15.1431ZM5.57723 15.1431C5.07031 14.437 4.7062 13.6646 4.43771 12.8466C4.40848 12.756 4.35879 12.7447 4.27779 12.7451C3.66899 12.7476 3.0606 12.7451 2.4518 12.7451C2.42383 12.7451 2.39627 12.7514 2.34741 12.7568C3.20633 13.8779 4.27236 14.6713 5.57974 15.144L5.57723 15.1431ZM10.4113 1.88607C10.4149 1.90395 10.4202 1.92143 10.4272 1.93827C10.9282 2.61889 11.2853 3.37383 11.5521 4.17262C11.5821 4.26323 11.6302 4.27617 11.7116 4.27576C12.3054 4.27325 12.8991 4.27576 13.4925 4.27576C13.5313 4.27576 13.5697 4.27033 13.6303 4.26574C12.7768 3.15879 11.7178 2.37336 10.4138 1.88691L10.4113 1.88607ZM2.36453 4.27409H2.53615C3.10904 4.27409 3.68151 4.2695 4.2544 4.27785C4.38385 4.27785 4.43228 4.23609 4.47112 4.11959C4.72917 3.34544 5.07783 2.61638 5.56429 1.95664C5.57837 1.9324 5.59119 1.90746 5.6027 1.8819C4.2853 2.37545 3.22846 3.15962 2.36453 4.27409Z" fill="white"/>
</svg>
