<svg width="147" height="40" viewBox="0 0 147 40" fill="none" xmlns="http://www.w3.org/2000/svg">
<path d="M19.0666 13.3105L19.0645 15.1794L9.54507 20.88L0.0405809 15.1794V13.3105L9.54507 19.0026L19.0666 13.3105Z" fill="white"/>
<path d="M12.7339 15.1794L9.5472 17.0889L6.36266 15.1794H12.7339Z" fill="white"/>
<path d="M12.7317 26.6275L9.54293 24.7181L6.35839 26.6275H12.7317Z" fill="white"/>
<path d="M19.0666 17.1444L19.0645 19.0111L9.54507 24.7138L0.0405809 19.0111V17.1444L9.54507 22.8343L19.0666 17.1444Z" fill="white"/>
<path d="M146.57 2.67193H0V4.00897H146.57V2.67193Z" fill="white"/>
<path d="M146.57 0H0V1.33704H146.57V0Z" fill="white"/>
<path d="M146.57 38.6608H0V40H146.57V38.6608Z" fill="white"/>
<path d="M146.57 35.9889H0V37.3281H146.57V35.9889Z" fill="white"/>
<path d="M41.2601 13.2977H42.5673L46.557 19.9594L42.5673 26.6104H41.2601L45.2435 19.9594L41.2601 13.2977Z" fill="white"/>
<path d="M43.9428 13.2977H45.2499L49.2396 19.9594L45.2499 26.6104H43.9428L47.9261 19.9594L43.9428 13.2977Z" fill="white"/>
<path d="M146.619 13.3105H145.312L141.322 19.9722L145.312 26.6232H146.619L142.636 19.9722L146.619 13.3105Z" fill="white"/>
<path d="M143.936 13.3105H142.629L138.639 19.9722L142.629 26.6232H143.936L139.953 19.9722L143.936 13.3105Z" fill="white"/>
<path d="M64.7971 23.4173C64.7971 24.6889 64.5543 25.5852 64.0688 26.1064C63.5818 26.6296 62.6933 26.8924 61.3968 26.8924C60.1395 26.8924 59.2368 26.6247 58.6886 26.0893C58.1404 25.5539 57.867 24.6882 57.8684 23.4921C57.8684 23.381 57.8791 23.05 57.9047 22.5032H60.4827V22.7638C60.4699 22.8777 60.4635 22.9589 60.4635 23.0073C60.4461 23.3346 60.4844 23.6624 60.5767 23.9769C60.6263 24.1278 60.725 24.2576 60.857 24.3459C60.9889 24.4341 61.1467 24.4757 61.305 24.4639C61.8646 24.4639 62.1444 24.1079 62.1444 23.396C62.1656 22.9924 62.0924 22.5895 61.9308 22.2191C61.6899 21.8378 61.3824 21.5029 61.0231 21.2302C60.2737 20.6147 59.5572 19.9603 58.8765 19.2695C58.3412 18.6587 58.03 18.129 57.9432 17.6805C57.8847 17.2602 57.8597 16.836 57.8684 16.4118C57.8684 15.2157 58.1482 14.3564 58.7078 13.8338C59.2674 13.3113 60.1929 13.05 61.4844 13.05C62.6164 13.05 63.438 13.3269 63.9492 13.8808C64.4603 14.4347 64.7181 15.3246 64.7223 16.5506C64.7223 16.6873 64.7095 16.9436 64.6839 17.3174H62.0889V16.8902C62.1019 16.5836 62.0768 16.2765 62.0141 15.9761C61.975 15.8301 61.8867 15.7021 61.7641 15.6138C61.6415 15.5255 61.4921 15.4822 61.3413 15.4912C60.7945 15.4912 60.519 15.8458 60.519 16.5592C60.5013 16.9742 60.6264 17.3828 60.8736 17.7168C61.1535 18.0239 61.4601 18.3055 61.7898 18.5583C62.9859 19.5792 63.7021 20.2449 63.9385 20.5553C64.096 20.7584 64.2388 20.9725 64.3657 21.1961C64.5272 21.4843 64.6528 21.7913 64.7394 22.1102C64.7926 22.5438 64.8119 22.9808 64.7971 23.4173Z" fill="white"/>
<path d="M81.525 23.4173C81.525 24.7245 81.2794 25.6308 80.7881 26.1363C80.2969 26.6417 79.397 26.8938 78.0884 26.8924C76.7813 26.8924 75.8785 26.6403 75.3802 26.1363C74.8818 25.6322 74.6341 24.7259 74.6369 23.4173V16.525C74.6369 15.2179 74.8854 14.3123 75.3823 13.8082C75.8792 13.3041 76.782 13.0521 78.0906 13.0521C79.3991 13.0521 80.299 13.3041 80.7903 13.8082C81.2815 14.3123 81.5271 15.2179 81.5271 16.525L81.525 23.4173ZM78.9299 23.2486V16.5997C78.9463 16.3154 78.9086 16.0306 78.8189 15.7604C78.7479 15.6327 78.6405 15.5289 78.5105 15.4624C78.3804 15.3958 78.2335 15.3695 78.0884 15.3866C77.5288 15.3866 77.249 15.7839 77.249 16.5827V23.3618C77.249 24.1592 77.5167 24.5572 78.0521 24.5557C78.4366 24.5557 78.6929 24.4191 78.8189 24.1457C78.9108 23.856 78.9484 23.5519 78.9299 23.2486Z" fill="white"/>
<path d="M99.7245 26.6297H96.8667L94.6625 20.0555V26.6297H92.0675V13.3127H94.6625V19.6455L96.7535 13.3127H99.5002L97.091 19.7544L99.7245 26.6297Z" fill="white"/>
<path d="M115.933 23.4173C115.933 24.7245 115.687 25.6308 115.194 26.1363C114.702 26.6417 113.803 26.8938 112.497 26.8924C111.19 26.8924 110.287 26.6403 109.789 26.1363C109.29 25.6322 109.041 24.7259 109.041 23.4173V16.525C109.041 15.2179 109.29 14.3123 109.789 13.8082C110.287 13.3041 111.19 13.0521 112.497 13.0521C113.804 13.0521 114.703 13.3041 115.194 13.8082C115.686 14.3123 115.932 15.2179 115.933 16.525V23.4173ZM113.336 23.2486V16.5997C113.354 16.3154 113.316 16.0304 113.225 15.7604C113.154 15.6328 113.048 15.5292 112.918 15.4626C112.788 15.3961 112.642 15.3696 112.497 15.3866C111.935 15.3866 111.655 15.7839 111.655 16.5827V23.3618C111.655 24.1585 111.924 24.5557 112.458 24.5557C112.845 24.5557 113.099 24.4191 113.225 24.1457C113.318 23.8563 113.356 23.5519 113.336 23.2486Z" fill="white"/>
<path d="M132.11 26.6297H126.583V21.2495L125.835 21.7343V19.6988L126.583 19.1948V13.3127H129.272V17.5844L130.784 16.5933V18.648L129.272 19.639V24.1948H132.11V26.6297Z" fill="white"/>
<path d="M114.754 10.6365L112.522 11.9714L110.295 10.6365H114.754Z" fill="white"/>
<path d="M29.9188 13.3661H31.6446C31.9341 13.3471 32.2226 13.4172 32.4712 13.5669C32.5641 13.631 32.639 13.7179 32.6887 13.8192C32.7384 13.9205 32.7613 14.0329 32.7552 14.1457C32.7609 14.2458 32.7448 14.346 32.7079 14.4394C32.671 14.5327 32.6143 14.6168 32.5416 14.686C32.3522 14.8379 32.1216 14.9294 31.8795 14.9487C31.9713 14.9656 32.0609 14.9928 32.1465 15.0299C32.217 15.0616 32.2824 15.1033 32.3409 15.1538C32.4965 15.3226 32.6125 15.524 32.6805 15.7433C32.704 15.8073 32.7232 15.8543 32.7339 15.8885C32.7695 16.0001 32.8389 16.0978 32.9325 16.1683C33.0417 16.2224 33.1633 16.2467 33.2849 16.2388H33.3405V16.5164C33.2123 16.5164 33.097 16.5335 32.9902 16.5378H32.7018C32.5669 16.5399 32.4325 16.519 32.3046 16.4759C32.197 16.4396 32.1001 16.3772 32.0226 16.2943C31.9162 16.1554 31.8432 15.9939 31.8091 15.8223C31.7813 15.724 31.7599 15.6493 31.7428 15.6087C31.706 15.4724 31.632 15.3489 31.5293 15.252C31.4232 15.1778 31.2955 15.141 31.1662 15.1474H31.1213V16.1384L31.1939 16.2281L31.5036 16.2452V16.5186H29.9252V16.2452L30.2264 16.2281L30.3033 16.1384V13.727L30.2264 13.6587L29.9252 13.6395L29.9188 13.3661ZM31.1149 13.6843V14.8419H31.2217C31.403 14.8557 31.5831 14.8025 31.7279 14.6924C31.7872 14.635 31.8332 14.5653 31.8628 14.4882C31.8923 14.4111 31.9046 14.3284 31.8988 14.246C31.9026 14.1714 31.8909 14.0969 31.8644 14.027C31.8379 13.9572 31.7973 13.8936 31.745 13.8402C31.6321 13.7375 31.4831 13.6838 31.3306 13.6907L31.1149 13.6843Z" fill="white"/>
<path d="M31.5463 18.3917C32.01 18.3612 32.468 18.5077 32.8279 18.8018C33.1184 19.1198 33.2795 19.535 33.2795 19.9658C33.2795 20.3966 33.1184 20.8118 32.8279 21.1299C32.4686 21.4249 32.0102 21.5715 31.5463 21.5399H29.906V21.2687L30.2114 21.2495L30.2883 21.1598V18.7719L30.2114 18.6865L29.8975 18.6672V18.396L31.5463 18.3917ZM31.1363 18.7057V21.226H31.3306C31.471 21.2366 31.6119 21.2139 31.7418 21.1597C31.8717 21.1055 31.987 21.0214 32.0782 20.9141C32.2392 20.624 32.3237 20.2976 32.3237 19.9658C32.3237 19.634 32.2392 19.3076 32.0782 19.0175C31.987 18.9103 31.8717 18.8261 31.7418 18.7719C31.6119 18.7177 31.471 18.695 31.3306 18.7057H31.1363Z" fill="white"/>
<path d="M29.906 26.619V26.3456L30.22 26.3285L30.2969 26.2388V23.8296L30.22 23.7612L29.906 23.742V23.4686H31.4929V23.742L31.2153 23.7655L31.1405 23.8296V25.0107H31.2452L32.2853 23.821L32.2619 23.7655L31.9799 23.742V23.4686H33.1546V23.742L32.7979 23.7655L31.9564 24.7223L32.9389 26.3199L33.2871 26.3456V26.619H32.0696V26.4353L31.352 25.2627H31.1384V26.2388L31.2132 26.3285L31.4908 26.3456V26.619H29.906Z" fill="white"/>
</svg>
