<svg width="50" height="50" viewBox="0 0 50 50" fill="none" xmlns="http://www.w3.org/2000/svg">
<path d="M13 19.2794C13.0398 19.1002 13.0737 18.919 13.1212 18.741C13.2405 18.2946 13.438 17.8813 13.7619 17.5515C14.4789 16.8202 15.1959 16.085 15.95 15.3895C16.6904 14.7045 17.6101 14.6895 18.3427 15.3895C19.4573 16.4493 20.5223 17.56 21.6056 18.6524C21.6767 18.7306 21.7382 18.817 21.7887 18.9098C22.2039 19.604 22.155 20.3535 21.603 20.9519C21.0163 21.5854 20.3978 22.1857 19.7897 22.7984C19.3895 23.2012 19.3921 23.209 19.6274 23.722C20.2596 25.1031 21.2178 26.2503 22.2345 27.3525C23.2513 28.4546 24.3815 29.4382 25.6558 30.2425C26.0951 30.5182 26.5683 30.7391 27.0245 30.9842C27.2357 31.097 27.3934 31.0051 27.546 30.8539C28.1239 30.2699 28.7042 29.6876 29.2869 29.1071C29.5848 28.8098 29.9172 28.5654 30.3356 28.4716C30.8629 28.3536 31.3322 28.5009 31.7552 28.8157C31.8721 28.9042 31.9825 29.0009 32.0857 29.1051C33.0321 30.0469 33.983 30.9836 34.9157 31.9384C35.1389 32.1626 35.3238 32.4217 35.4632 32.7056C35.7565 33.3261 35.6418 33.944 35.2025 34.4354C34.4784 35.2378 33.7073 35.9997 32.9291 36.7512C32.5048 37.1606 31.9612 37.3691 31.3759 37.4558C31.3388 37.4664 31.3035 37.4822 31.2709 37.5028H30.1472C30.1033 37.4853 30.0585 37.4703 30.013 37.4578C29.3403 37.3157 28.6494 37.2303 27.9977 37.023C25.9843 36.3823 24.1606 35.3519 22.4444 34.1382C19.3373 31.9397 16.8514 29.1703 14.9697 25.8605C14.2622 24.6373 13.7087 23.3311 13.322 21.9719C13.1845 21.4746 13.1069 20.9597 13.002 20.4533L13 19.2794Z" fill="#313131"/>
<path d="M37.991 24.2341L36.0832 24.56C35.6028 21.9138 34.4205 19.6534 32.4984 17.7932C30.5762 15.933 28.3015 14.8262 25.6292 14.4286C25.7197 13.7769 25.809 13.1374 25.8977 12.5C32.2774 13.3271 37.1313 18.5323 37.991 24.2341Z" fill="#239456"/>
<path d="M25.3748 19.397C25.4654 18.755 25.5533 18.1299 25.642 17.5068C29.3806 17.9272 32.4434 21.1112 32.9192 24.5677L31.0408 24.8936C30.3368 21.8504 28.4558 20.0169 25.3748 19.397Z" fill="#239456"/>
</svg>
