<svg width="22" height="30" viewBox="0 0 22 30" fill="none" xmlns="http://www.w3.org/2000/svg">
<path d="M11.77 -0.000244141C12.3351 0.0968103 12.9064 0.164122 13.4637 0.294833C17.6676 1.28181 20.8688 4.83448 21.4527 9.10565C21.7313 11.1407 21.3791 13.0888 20.7052 14.997C19.8552 17.4046 18.6162 19.6149 17.198 21.7243C15.5097 24.2328 13.7541 26.6976 12.0322 29.1811C11.9375 29.3172 11.8482 29.4581 11.7504 29.5912C11.3512 30.1344 10.6632 30.1391 10.2727 29.5912C9.89855 29.0668 9.54007 28.5314 9.1769 28.0015C7.57081 25.673 5.92791 23.368 4.36878 21.0073C3.02332 18.9723 1.89232 16.8097 1.13702 14.4718C0.381717 12.1339 0.15396 9.77956 0.94918 7.42755C2.32047 3.37005 5.15539 0.946819 9.35926 0.129684C9.65433 0.0725467 9.95412 0.0435869 10.2515 0.00132125L11.77 -0.000244141ZM11.0021 27.5405C11.0522 27.4818 11.0804 27.4552 11.1015 27.4247C12.5824 25.3044 14.0875 23.1981 15.5347 21.059C16.924 19.0029 18.1638 16.8583 19.0138 14.5133C19.6118 12.8618 19.9648 11.1712 19.7222 9.40386C19.0428 4.47287 14.5439 1.1151 9.62538 1.86962C4.77736 2.61396 1.44463 7.35241 2.36352 12.1723C2.68442 13.8551 3.29727 15.4291 4.06197 16.9467C5.29315 19.3958 6.83428 21.6507 8.40907 23.8838C9.26064 25.0985 10.1216 26.3046 10.9998 27.5405H11.0021Z" fill="#239456"/>
<path d="M10.9825 15.8181C9.58481 15.8094 8.2476 15.247 7.26377 14.2543C6.27994 13.2615 5.72972 11.9192 5.73369 10.5215C5.74238 9.1239 6.30472 7.78667 7.2975 6.80285C8.29027 5.81903 9.63254 5.26882 11.0302 5.27279C12.4279 5.28127 13.7653 5.84354 14.7491 6.83636C15.733 7.82918 16.2832 9.17156 16.279 10.5693C16.2699 11.9668 15.7074 13.3038 14.7147 14.2875C13.722 15.2713 12.38 15.8216 10.9825 15.8181ZM7.49086 10.5466C7.49437 11.479 7.8668 12.3721 8.52677 13.0307C9.18674 13.6894 10.0806 14.06 11.013 14.0617C11.9404 14.0564 12.8284 13.6861 13.4849 13.0311C14.1414 12.376 14.5137 11.4888 14.521 10.5615C14.5219 9.629 14.1533 8.73417 13.496 8.07277C12.8388 7.41137 11.9462 7.03726 11.0138 7.03229C10.0813 7.03352 9.18726 7.4039 8.52709 8.06245C7.86693 8.72099 7.49438 9.61413 7.49086 10.5466Z" fill="#239456"/>
</svg>
