<svg width="40" height="40" viewBox="0 0 40 40" fill="none" xmlns="http://www.w3.org/2000/svg">
<path d="M4.9834 23.7389C5.06272 23.6655 5.14645 23.6023 5.22136 23.5274C11.3184 17.4333 17.4145 11.3384 23.5096 5.24286C23.5918 5.1606 23.6609 5.06365 23.7145 4.99976L27.4661 8.7492C27.3156 8.89095 27.1195 9.06062 26.9388 9.24643C26.0045 10.2115 25.8371 11.43 26.468 12.5772C27.215 13.9316 29.1811 14.3253 30.3849 13.3514C30.7022 13.0943 30.9908 12.8012 31.2707 12.5434L35.0164 16.2892C34.9273 16.3368 34.8435 16.3939 34.7667 16.4596C28.6618 22.5596 22.5589 28.6608 16.458 34.7632C16.3845 34.8367 16.3169 34.9219 16.2464 35.0005H16.1877C16.1253 34.927 16.0672 34.8536 15.9997 34.7801C14.9166 33.6946 13.8315 32.6108 12.7445 31.5286C12.671 31.4552 12.566 31.4075 12.4177 31.3083C12.674 31.0769 12.8804 30.9352 13.028 30.7472C13.2792 30.4284 13.5627 30.1082 13.7118 29.7402C14.1929 28.5482 13.7764 27.2607 12.7298 26.5299C11.761 25.8534 10.4162 25.9335 9.47097 26.7348C9.2051 26.9603 8.962 27.2129 8.64104 27.5163C8.58783 27.4175 8.52536 27.3241 8.45449 27.2372C7.532 26.3068 6.60681 25.3809 5.67894 24.4594C5.45199 24.2332 5.21622 24.0187 4.98413 23.7947L4.9834 23.7389ZM8.7747 25.0279C10.8635 23.7683 12.9678 24.3346 14.0952 25.3746C15.9446 27.0815 16.0988 29.0719 14.9942 31.1768L16.2281 32.4027L32.437 16.1959L31.2104 14.9584C29.3743 15.9631 27.5381 16.0006 25.9142 14.5823C24.0208 12.9268 23.901 10.896 25.0057 8.78813L23.7718 7.5623L7.54008 23.794L8.7747 25.0279Z" fill="#239456"/>
<path d="M22.4929 18.6417L21.3398 17.4901L22.526 16.3098L23.6762 17.4659L22.4929 18.6417Z" fill="#239456"/>
<path d="M19.9966 16.1445C19.6161 15.7641 19.2166 15.3653 18.8369 14.987L20.0223 13.8016L21.1813 14.954L19.9966 16.1445Z" fill="#239456"/>
<path d="M26.1991 19.9901C25.8245 20.3654 25.4249 20.7642 25.0489 21.1395L23.8738 19.9688L25.0276 18.8091L26.1991 19.9901Z" fill="#239456"/>
</svg>
