<svg width="26" height="26" viewBox="0 0 26 26" fill="none" xmlns="http://www.w3.org/2000/svg">
<path d="M12.2137 0.5H13.7792C14.1974 0.55349 14.6181 0.591324 15.0323 0.664384C18.2541 1.23255 20.896 2.79224 22.8901 5.38389C25.08 8.22929 25.8947 11.4641 25.3285 15.0042C24.8066 18.2802 23.1798 20.9436 20.5412 22.9488C17.8106 25.0251 14.7094 25.8248 11.3109 25.3819C8.82751 25.0558 6.63704 24.044 4.75968 22.3813C2.57703 20.4498 1.21433 18.0473 0.693131 15.1764C0.608983 14.714 0.562668 14.2449 0.497437 13.7792V12.2188C0.534619 11.9136 0.566581 11.6076 0.610939 11.3056C1.00233 8.58089 2.15301 6.22342 4.08191 4.2606C5.9534 2.35453 8.20978 1.16014 10.8445 0.696348C11.2965 0.612199 11.7564 0.563275 12.2137 0.5ZM12.9847 2.06556C6.95993 2.07469 2.05973 6.9788 2.05777 13.001C2.05581 19.0232 6.97885 23.9462 13.0062 23.937C19.0336 23.9279 23.9319 19.0238 23.9332 13.0016C23.9345 6.97945 19.0128 2.05382 12.9847 2.0623V2.06556Z" fill="#239456"></path>
<path d="M18.2339 17.093L17.1158 18.2097C17.0747 18.1725 17.0206 18.1262 16.9704 18.0793C15.4339 16.5428 13.8993 15.0058 12.3663 13.468C12.2832 13.386 12.2319 13.2771 12.2215 13.1608C12.2137 10.542 12.2117 7.92249 12.2156 5.30235C12.2156 5.27821 12.2195 5.25408 12.2235 5.20972H13.7773V5.48369C13.7773 7.7942 13.7762 10.1047 13.774 12.4152C13.7695 12.4983 13.7833 12.5814 13.8144 12.6586C13.8456 12.7358 13.8932 12.8052 13.9541 12.862C15.317 14.2145 16.6759 15.5707 18.031 16.9305C18.0959 16.9881 18.1636 17.0423 18.2339 17.093Z" fill="#239456"></path>
</svg>
