<svg width="246" height="67" viewBox="0 0 246 67" fill="none" xmlns="http://www.w3.org/2000/svg">
<path d="M32.3603 22.2952L32.3568 25.4255L16.4498 34.9739L0.567811 25.4255V22.2952L16.4498 31.8293L32.3603 22.2952Z" fill="black"></path>
<path d="M21.7783 25.4255L16.4534 28.6238L11.132 25.4255H21.7783Z" fill="black"></path>
<path d="M21.7747 44.6011L16.4462 41.4028L11.1249 44.6011H21.7747Z" fill="black"></path>
<path d="M32.3603 28.7168L32.3568 31.8436L16.4498 41.3956L0.567811 31.8436V28.7168L16.4498 38.2474L32.3603 28.7168Z" fill="black"></path>
<path d="M245.418 4.47549H0.5V6.71503H245.418V4.47549Z" fill="black"></path>
<path d="M245.418 0H0.5V2.23954H245.418V0Z" fill="black"></path>
<path d="M245.418 64.7569H0.5V67H245.418V64.7569Z" fill="black"></path>
<path d="M245.418 60.2814H0.5V62.5245H245.418V60.2814Z" fill="black"></path>
<path d="M69.4456 22.2737H71.6298L78.2967 33.432L71.6298 44.5725H69.4456L76.1018 33.432L69.4456 22.2737Z" fill="black"></path>
<path d="M73.9283 22.2737H76.1125L82.7793 33.432L76.1125 44.5725H73.9283L80.5844 33.432L73.9283 22.2737Z" fill="black"></path>
<path d="M245.5 22.2952H243.316L236.649 33.4535L243.316 44.5939H245.5L238.844 33.4535L245.5 22.2952Z" fill="black"></path>
<path d="M241.017 22.2952H238.833L232.166 33.4535L238.833 44.5939H241.017L234.361 33.4535L241.017 22.2952Z" fill="black"></path>
<path d="M108.776 39.2241C108.776 41.3539 108.37 42.8552 107.559 43.7282C106.745 44.6047 105.26 45.0447 103.094 45.0447C100.993 45.0447 99.4846 44.5963 98.5685 43.6995C97.6525 42.8028 97.1957 41.3527 97.198 39.3493C97.198 39.1632 97.2159 38.6087 97.2587 37.6929H101.566V38.1293C101.545 38.3201 101.534 38.4561 101.534 38.5372C101.505 39.0854 101.569 39.6346 101.724 40.1614C101.806 40.414 101.971 40.6315 102.192 40.7793C102.412 40.9272 102.676 40.9968 102.941 40.977C103.876 40.977 104.343 40.3808 104.343 39.1883C104.379 38.5123 104.256 37.8374 103.986 37.2171C103.584 36.5784 103.07 36.0173 102.469 35.5607C101.217 34.5297 100.02 33.4334 98.8826 32.2765C97.988 31.2533 97.4681 30.3661 97.323 29.6148C97.2253 28.9109 97.1835 28.2003 97.198 27.4898C97.198 25.4863 97.6656 24.047 98.6007 23.1717C99.5357 22.2964 101.082 21.8587 103.24 21.8587C105.132 21.8587 106.505 22.3226 107.359 23.2504C108.213 24.1781 108.644 25.6688 108.651 27.7223C108.651 27.9513 108.629 28.3806 108.587 29.0066H104.25V28.2911C104.272 27.7775 104.23 27.2632 104.125 26.7599C104.06 26.5154 103.913 26.3011 103.708 26.1531C103.503 26.0051 103.253 25.9326 103.001 25.9478C102.088 25.9478 101.627 26.5417 101.627 27.7366C101.597 28.4319 101.807 29.1163 102.22 29.6756C102.687 30.19 103.2 30.6617 103.751 31.0852C105.749 32.7952 106.946 33.9102 107.341 34.4302C107.604 34.7703 107.843 35.129 108.055 35.5034C108.325 35.9862 108.535 36.5005 108.679 37.0346C108.768 37.7608 108.801 38.4928 108.776 39.2241Z" fill="black"></path>
<path d="M136.728 39.224C136.728 41.4135 136.318 42.9316 135.497 43.7782C134.676 44.6249 133.172 45.0471 130.986 45.0447C128.801 45.0447 127.293 44.6225 126.46 43.7782C125.627 42.9339 125.213 41.4159 125.218 39.224V27.6794C125.218 25.4899 125.633 23.973 126.464 23.1287C127.294 22.2844 128.803 21.8623 130.989 21.8623C133.176 21.8623 134.679 22.2844 135.5 23.1287C136.321 23.973 136.732 25.4899 136.732 27.6794L136.728 39.224ZM132.392 38.9414V27.8046C132.419 27.3284 132.356 26.8513 132.206 26.3986C132.088 26.1847 131.908 26.011 131.691 25.8995C131.474 25.788 131.228 25.7438 130.986 25.7725C130.051 25.7725 129.583 26.438 129.583 27.7759V39.131C129.583 40.4666 130.03 41.1333 130.925 41.1309C131.567 41.1309 131.996 40.9019 132.206 40.444C132.36 39.9588 132.423 39.4495 132.392 38.9414Z" fill="black"></path>
<path d="M167.139 44.6047H162.364L158.681 33.593V44.6047H154.345V22.2987H158.681V32.9061L162.175 22.2987H166.765L162.739 33.0886L167.139 44.6047Z" fill="black"></path>
<path d="M194.224 39.224C194.224 41.4135 193.813 42.9316 192.99 43.7782C192.166 44.6249 190.664 45.0471 188.482 45.0447C186.298 45.0447 184.789 44.6225 183.956 43.7782C183.124 42.9339 182.707 41.4159 182.707 39.224V27.6794C182.707 25.4899 183.124 23.973 183.956 23.1287C184.789 22.2844 186.298 21.8623 188.482 21.8623C190.666 21.8623 192.169 22.2844 192.99 23.1287C193.81 23.973 194.222 25.4899 194.224 27.6794V39.224ZM189.885 38.9414V27.8046C189.914 27.3283 189.851 26.8509 189.699 26.3986C189.581 26.185 189.402 26.0114 189.185 25.8999C188.969 25.7884 188.724 25.7441 188.482 25.7725C187.543 25.7725 187.076 26.438 187.076 27.7759V39.131C187.076 40.4655 187.525 41.1309 188.418 41.1309C189.064 41.1309 189.488 40.9019 189.699 40.444C189.854 39.9592 189.917 39.4495 189.885 38.9414Z" fill="black"></path>
<path d="M221.256 44.6047H212.019V35.5929L210.77 36.405V32.9956L212.019 32.1513V22.2987H216.513V29.4538L219.04 27.7938V31.2354L216.513 32.8954V40.5263H221.256V44.6047Z" fill="black"></path>
<path d="M192.254 17.8161L188.525 20.0521L184.802 17.8161H192.254Z" fill="black"></path>
<path d="M50.4943 22.3882H53.3781C53.8619 22.3564 54.3439 22.4738 54.7593 22.7245C54.9145 22.8319 55.0396 22.9774 55.1227 23.1472C55.2059 23.3169 55.2441 23.5052 55.2339 23.694C55.2435 23.8618 55.2165 24.0296 55.1548 24.1859C55.0932 24.3422 54.9984 24.4832 54.877 24.5991C54.5605 24.8534 54.1751 25.0067 53.7706 25.0391C53.924 25.0673 54.0737 25.1129 54.2168 25.1751C54.3345 25.2281 54.4439 25.298 54.5415 25.3826C54.8016 25.6653 54.9954 26.0027 55.109 26.37C55.1483 26.4773 55.1804 26.556 55.1982 26.6132C55.2578 26.8001 55.3738 26.9639 55.5302 27.0819C55.7127 27.1726 55.9158 27.2133 56.119 27.2H56.2118V27.665C55.9977 27.665 55.805 27.6937 55.6265 27.7008H55.1447C54.9191 27.7044 54.6946 27.6693 54.4809 27.5971C54.3011 27.5364 54.1393 27.4319 54.0098 27.293C53.832 27.0603 53.7099 26.7898 53.6529 26.5023C53.6065 26.3378 53.5708 26.2126 53.5422 26.1446C53.4806 25.9162 53.3571 25.7094 53.1853 25.5472C53.0081 25.4228 52.7947 25.3611 52.5786 25.3718H52.5037V27.0318L52.625 27.1821L53.1425 27.2107V27.6686H50.505V27.2107L51.0083 27.1821L51.1367 27.0318V22.9928L51.0083 22.8783L50.505 22.8461L50.4943 22.3882ZM52.4929 22.9212V24.8603H52.6714C52.9744 24.8833 53.2754 24.7942 53.5173 24.6098C53.6164 24.5136 53.6933 24.3968 53.7426 24.2677C53.7919 24.1385 53.8125 24.0001 53.8028 23.8621C53.8091 23.7372 53.7896 23.6123 53.7454 23.4953C53.7011 23.3783 53.6332 23.2717 53.5458 23.1824C53.3572 23.0104 53.1082 22.9203 52.8534 22.932L52.4929 22.9212Z" fill="black"></path>
<path d="M53.2139 30.8061C53.9887 30.755 54.754 31.0005 55.3553 31.493C55.8408 32.0257 56.11 32.7212 56.11 33.4427C56.11 34.1643 55.8408 34.8598 55.3553 35.3925C54.7549 35.8867 53.9889 36.1323 53.2139 36.0794H50.4729V35.625L50.9833 35.5928L51.1118 35.4426V31.4429L50.9833 31.2998L50.4586 31.2676V30.8133L53.2139 30.8061ZM52.5286 31.332V35.5535H52.8534C53.088 35.5713 53.3234 35.5333 53.5405 35.4425C53.7576 35.3517 53.9502 35.2108 54.1026 35.0312C54.3716 34.5452 54.5128 33.9985 54.5128 33.4427C54.5128 32.8869 54.3716 32.3403 54.1026 31.8543C53.9502 31.6747 53.7576 31.5338 53.5405 31.443C53.3234 31.3522 53.088 31.3142 52.8534 31.332H52.5286Z" fill="black"></path>
<path d="M50.4729 44.5868V44.1288L50.9975 44.1002L51.126 43.95V39.9145L50.9975 39.8L50.4729 39.7678V39.3099H53.1247V39.7678L52.6607 39.8072L52.5358 39.9145V41.8929H52.7107L54.4488 39.9002L54.4095 39.8072L53.9384 39.7678V39.3099H55.9013V39.7678L55.3053 39.8072L53.8991 41.4099L55.5409 44.0859L56.1226 44.1288V44.5868H54.0883V44.2791L52.8891 42.315H52.5322V43.95L52.6571 44.1002L53.1211 44.1288V44.5868H50.4729Z" fill="black"></path>
</svg>
