<svg width="945" height="430" viewBox="0 0 945 430" fill="none" xmlns="http://www.w3.org/2000/svg">
<g clip-path="url('#clip0_86_1599')">
<path d="M502.696 286.189H444.333V400.36H502.696V286.189Z" stroke="#313131" stroke-width="2" stroke-miterlimit="10"></path>
<path d="M621.772 286.189H578.634V370.337H621.772V286.189Z" stroke="#313131" stroke-width="2" stroke-miterlimit="10"></path>
<path d="M628.024 373.519H572.377V378.029H628.024V373.519Z" stroke="#313131" stroke-width="2" stroke-miterlimit="10"></path>
<path d="M635.942 219.709H562.809V224.219H635.942V219.709Z" stroke="#313131" stroke-width="2" stroke-miterlimit="10"></path>
<path d="M617.068 289.993H581.822V314.378H617.068V289.993Z" stroke="#313131" stroke-width="2" stroke-miterlimit="10"></path>
<path d="M598.318 320.155H582.528V367.089H598.318V320.155Z" stroke="#313131" stroke-width="2" stroke-miterlimit="10"></path>
<path d="M617.774 320.155H601.983V367.089H617.774V320.155Z" stroke="#313131" stroke-width="2" stroke-miterlimit="10"></path>
<path d="M594.767 263.172C596.399 262.119 598.296 261.55 600.238 261.531C604.182 261.68 607.32 263.575 607.489 265.927C607.37 267.135 605.972 281.257 605.818 282.833H594.638C594.409 280.531 593.046 266.777 592.977 266.086C592.987 264.962 593.663 263.958 594.767 263.172Z" stroke="#313131" stroke-width="2" stroke-miterlimit="10"></path>
<path d="M468.066 263.844C469.697 262.788 471.594 262.219 473.537 262.203C477.481 262.352 480.619 264.242 480.788 266.599C480.669 267.807 479.296 281.928 479.117 283.505H467.922C467.693 281.198 466.331 267.449 466.261 266.758C466.286 265.634 466.962 264.63 468.066 263.844Z" stroke="#313131" stroke-width="2" stroke-miterlimit="10"></path>
<path d="M715.943 286.189H672.804V370.337H715.943V286.189Z" stroke="#313131" stroke-width="2" stroke-miterlimit="10"></path>
<path d="M722.199 373.519H666.552V378.029H722.199V373.519Z" stroke="#313131" stroke-width="2" stroke-miterlimit="10"></path>
<path d="M711.243 289.993H675.997V314.378H711.243V289.993Z" stroke="#313131" stroke-width="2" stroke-miterlimit="10"></path>
<path d="M692.488 320.155H676.698V367.089H692.488V320.155Z" stroke="#313131" stroke-width="2" stroke-miterlimit="10"></path>
<path d="M711.944 320.155H696.154V367.089H711.944V320.155Z" stroke="#313131" stroke-width="2" stroke-miterlimit="10"></path>
<path d="M688.938 263.172C690.569 262.119 692.466 261.55 694.408 261.531C698.357 261.68 701.495 263.575 701.664 265.927C701.545 267.135 700.172 281.257 699.993 282.833H688.808C688.579 280.531 687.222 266.777 687.152 266.086C687.162 264.962 687.843 263.958 688.938 263.172Z" stroke="#313131" stroke-width="2" stroke-miterlimit="10"></path>
<path d="M626.562 369.302V318.559H667.537V369.302" stroke="#313131" stroke-miterlimit="10"></path>
<path d="M624.115 314.422H671.108" stroke="#313131" stroke-miterlimit="10"></path>
<path d="M275.812 286.189H232.673V370.337H275.812V286.189Z" stroke="#313131" stroke-width="2" stroke-miterlimit="10"></path>
<path d="M282.859 370.854V373.375H225.636V370.854H282.859ZM283.854 369.859H224.641V374.369H283.854V369.859Z" fill="#313131"></path>
<path d="M281.103 374.483V377.069H227.391V374.483H281.103ZM282.068 373.523H226.427V378.033H282.068V373.523Z" fill="#313131"></path>
<path d="M271.112 289.993H235.866V314.378H271.112V289.993Z" stroke="#313131" stroke-width="2" stroke-miterlimit="10"></path>
<path d="M252.362 320.155H236.572V367.089H252.362V320.155Z" stroke="#313131" stroke-width="2" stroke-miterlimit="10"></path>
<path d="M271.818 320.155H256.028V367.089H271.818V320.155Z" stroke="#313131" stroke-width="2" stroke-miterlimit="10"></path>
<path d="M248.811 263.172C250.443 262.118 252.34 261.549 254.282 261.531C258.226 261.68 261.364 263.575 261.533 265.927C261.414 267.135 260.041 281.257 259.862 282.833H248.667C248.438 280.531 247.076 266.777 247.006 266.086C247.031 264.962 247.702 263.958 248.811 263.172Z" stroke="#313131" stroke-width="2" stroke-miterlimit="10"></path>
<path d="M369.987 286.189H326.848V370.337H369.987V286.189Z" stroke="#313131" stroke-width="2" stroke-miterlimit="10"></path>
<path d="M377.009 370.854V373.375H319.816V370.854H377.009ZM378.004 369.859H318.821V374.369H378.004V369.859Z" fill="#313131"></path>
<path d="M375.279 374.483V377.069H321.566V374.483H375.279ZM376.243 373.523H320.597V378.033H376.243V373.523Z" fill="#313131"></path>
<path d="M365.282 289.993H330.036V314.378H365.282V289.993Z" stroke="#313131" stroke-width="2" stroke-miterlimit="10"></path>
<path d="M346.533 320.155H330.742V367.089H346.533V320.155Z" stroke="#313131" stroke-width="2" stroke-miterlimit="10"></path>
<path d="M365.988 320.155H350.198V367.089H365.988V320.155Z" stroke="#313131" stroke-width="2" stroke-miterlimit="10"></path>
<path d="M342.982 263.172C344.613 262.119 346.51 261.55 348.452 261.531C352.396 261.68 355.539 263.575 355.708 265.927C355.584 267.135 354.187 281.257 354.037 282.833H342.837C342.609 280.531 341.251 266.777 341.176 266.086C341.201 264.962 341.878 263.958 342.982 263.172Z" stroke="#313131" stroke-width="2" stroke-miterlimit="10"></path>
<path d="M280.601 369.302V318.559H321.581V369.302" stroke="#313131" stroke-miterlimit="10"></path>
<path d="M278.159 314.422H325.152" stroke="#313131" stroke-miterlimit="10"></path>
<path d="M629.392 209.654V136.208C629.392 134.383 629.392 132.553 629.392 130.738C629.401 130.61 629.382 130.481 629.337 130.36C629.261 130.223 629.151 130.106 629.019 130.022C626.775 128.397 624.43 126.919 621.996 125.597C616.225 122.356 609.87 120.289 603.296 119.515C594.732 118.622 586.114 120.615 578.813 125.179C576.451 126.676 574.213 128.359 572.118 130.211C572.039 130.27 571.971 130.344 571.92 130.43C571.874 130.54 571.855 130.659 571.865 130.778C571.865 135.228 571.865 139.683 571.865 144.134V209.654" stroke="#313131" stroke-width="2" stroke-miterlimit="10"></path>
<path d="M578.823 209.511H567.021V216.606H578.823V209.511Z" stroke="#313131" stroke-width="2" stroke-miterlimit="10"></path>
<path d="M634.086 209.511H622.285V216.606H634.086V209.511Z" stroke="#313131" stroke-width="2" stroke-miterlimit="10"></path>
<path d="M383.813 217.187V219.415H308.273V217.187H383.813ZM384.967 216.063H307.134V220.539H384.967V216.063Z" fill="#313131"></path>
<path d="M381.485 220.818V223.115H310.58V220.818H381.485ZM382.589 219.709H309.481V224.224H382.589V219.709Z" fill="#313131"></path>
<path d="M376.059 209.654V130.728C376.068 130.6 376.051 130.472 376.01 130.35C375.933 130.211 375.822 130.095 375.686 130.012C373.444 128.386 371.098 126.908 368.664 125.587C362.899 122.351 356.55 120.288 349.984 119.515C341.418 118.622 332.799 120.615 325.495 125.179C323.143 126.68 320.911 128.362 318.821 130.211C318.73 130.272 318.658 130.357 318.614 130.458C318.569 130.558 318.555 130.669 318.573 130.778C318.573 135.228 318.573 139.683 318.573 144.133V209.654" stroke="#313131" stroke-width="2" stroke-miterlimit="10"></path>
<path d="M325.486 209.511H313.684V216.606H325.486V209.511Z" stroke="#313131" stroke-width="1.89" stroke-miterlimit="10"></path>
<path d="M380.749 209.511H368.948V216.606H380.749V209.511Z" stroke="#313131" stroke-width="1.89" stroke-miterlimit="10"></path>
<path d="M451.52 215.591V136.595C451.508 136.451 451.532 136.306 451.59 136.173C451.672 136.043 451.787 135.939 451.923 135.869C455.885 133.324 460.298 131.561 464.923 130.673C467.284 130.234 469.679 130.004 472.08 129.987C475.702 129.967 479.313 130.403 482.827 131.285C486.856 132.279 490.625 133.96 494.34 135.79C494.438 135.826 494.524 135.888 494.589 135.969C494.648 136.077 494.672 136.2 494.659 136.322V216.606H451.52V215.591Z" stroke="#313131" stroke-width="1.96" stroke-miterlimit="10"></path>
<path d="M456.379 139.261C456.951 138.903 457.687 138.585 458.03 138.401C459.023 137.876 460.046 137.411 461.094 137.008C464.073 135.857 467.208 135.158 470.394 134.935C477.356 134.438 483.926 136.591 490.168 139.47C490.321 139.523 490.455 139.622 490.551 139.753C490.609 139.877 490.633 140.015 490.62 140.151C490.62 146.794 490.62 153.432 490.62 160.075L455.588 159.971C455.588 153.421 455.588 146.87 455.588 140.32C455.575 140.219 455.575 140.117 455.588 140.017C455.764 139.687 456.041 139.422 456.379 139.261V139.261Z" stroke="#313131" stroke-width="2" stroke-miterlimit="10"></path>
<path d="M509.847 217.188V219.415H434.307V217.188H509.847ZM510.986 216.044H433.168V220.539H510.986V216.064V216.044Z" fill="#313131"></path>
<path d="M507.152 220.539V223.06H436.033V220.539H507.152ZM508.146 219.545H435.038V224.055H508.146V219.545Z" fill="#313131"></path>
<path d="M471.443 165.217H455.653V212.151H471.443V165.217Z" stroke="#313131" stroke-width="2" stroke-miterlimit="10"></path>
<path d="M490.625 165.217H474.835V212.151H490.625V165.217Z" stroke="#313131" stroke-width="2" stroke-miterlimit="10"></path>
<path d="M578.683 215.591V147.336C578.683 143.755 578.683 140.175 578.683 136.595C578.671 136.451 578.695 136.306 578.753 136.173C578.838 136.044 578.954 135.94 579.091 135.869C583.052 133.325 587.463 131.562 592.086 130.673C594.449 130.234 596.845 130.004 599.248 129.987C602.871 129.967 606.481 130.403 609.995 131.285C614.024 132.279 617.794 133.96 621.509 135.79C621.62 135.821 621.714 135.894 621.773 135.993C621.832 136.092 621.852 136.209 621.827 136.322C621.827 141.573 621.827 146.825 621.827 152.079V216.606H578.688L578.683 215.591Z" stroke="#313131" stroke-width="2" stroke-miterlimit="10"></path>
<path d="M583.542 139.261C584.114 138.903 584.845 138.585 585.193 138.401C586.186 137.875 587.209 137.41 588.257 137.008C591.236 135.856 594.371 135.157 597.557 134.935C604.52 134.438 611.085 136.591 617.331 139.47C617.484 139.524 617.617 139.623 617.714 139.753C617.77 139.878 617.793 140.015 617.784 140.151C617.784 146.794 617.784 153.432 617.784 160.075L582.752 159.971C582.752 153.422 582.752 146.869 582.752 140.32C582.746 140.218 582.756 140.116 582.781 140.017C582.841 139.763 583.154 139.49 583.542 139.261Z" stroke="#313131" stroke-width="2" stroke-miterlimit="10"></path>
<path d="M598.602 165.217H582.811V212.151H598.602V165.217Z" stroke="#313131" stroke-width="2" stroke-miterlimit="10"></path>
<path d="M617.784 165.217H601.993V212.151H617.784V165.217Z" stroke="#313131" stroke-width="2" stroke-miterlimit="10"></path>
<path d="M325.391 215.591V147.336C325.391 143.755 325.391 140.175 325.391 136.595C325.366 136.446 325.393 136.293 325.467 136.161C325.542 136.029 325.658 135.926 325.799 135.869C329.76 133.325 334.171 131.562 338.794 130.673C341.156 130.233 343.553 130.004 345.956 129.987C349.578 129.967 353.189 130.403 356.703 131.285C360.731 132.279 364.501 133.96 368.216 135.79C368.327 135.821 368.422 135.894 368.481 135.993C368.54 136.092 368.559 136.209 368.535 136.322C368.535 141.573 368.535 146.825 368.535 152.079V216.606H325.391V215.591Z" stroke="#313131" stroke-width="1.96" stroke-miterlimit="10"></path>
<path d="M330.26 139.261C330.837 138.903 331.568 138.585 331.916 138.401C332.908 137.874 333.931 137.409 334.98 137.008C337.957 135.856 341.09 135.157 344.275 134.935C351.238 134.438 357.807 136.591 364.049 139.47C364.204 139.523 364.339 139.622 364.437 139.753C364.492 139.878 364.516 140.015 364.506 140.151C364.506 146.794 364.506 153.432 364.506 160.075L329.474 159.971C329.474 153.422 329.474 146.869 329.474 140.32C329.469 140.218 329.479 140.116 329.504 140.017C329.554 139.763 329.867 139.49 330.26 139.261Z" stroke="#313131" stroke-width="2" stroke-miterlimit="10"></path>
<path d="M345.314 165.217H329.524V212.151H345.314V165.217Z" stroke="#313131" stroke-width="2" stroke-miterlimit="10"></path>
<path d="M364.496 165.217H348.706V212.151H364.496V165.217Z" stroke="#313131" stroke-width="2" stroke-miterlimit="10"></path>
<path d="M233.663 215.591V147.336C233.663 143.755 233.663 140.175 233.663 136.595C233.638 136.446 233.665 136.293 233.739 136.161C233.813 136.029 233.93 135.926 234.07 135.869C238.032 133.325 242.442 131.562 247.066 130.673C249.426 130.234 251.821 130.004 254.222 129.987C257.847 129.968 261.459 130.404 264.975 131.285C269.003 132.279 272.773 133.96 276.488 135.79C276.599 135.821 276.694 135.894 276.753 135.993C276.812 136.092 276.831 136.209 276.806 136.322C276.806 141.573 276.806 146.825 276.806 152.079V216.605H233.663V215.591Z" stroke="#313131" stroke-width="1.96" stroke-miterlimit="10"></path>
<path d="M238.522 139.261C239.094 138.903 239.83 138.585 240.178 138.401C241.164 137.873 242.183 137.407 243.226 137.004C246.204 135.851 249.337 135.152 252.522 134.93C259.484 134.433 266.054 136.586 272.296 139.465C272.451 139.518 272.586 139.617 272.683 139.748C272.74 139.873 272.762 140.01 272.748 140.146C272.748 146.776 272.748 153.417 272.748 160.07L237.756 159.971C237.756 153.422 237.756 146.869 237.756 140.32C237.75 140.218 237.76 140.116 237.786 140.017C237.825 139.763 238.139 139.49 238.522 139.261Z" stroke="#313131" stroke-width="2" stroke-miterlimit="10"></path>
<path d="M253.586 165.217H237.795V212.151H253.586V165.217Z" stroke="#313131" stroke-width="2" stroke-miterlimit="10"></path>
<path d="M272.768 165.217H256.978V212.151H272.768V165.217Z" stroke="#313131" stroke-width="2" stroke-miterlimit="10"></path>
<path d="M502.089 209.654V136.207C502.089 134.383 502.089 132.553 502.089 130.738C502.098 130.609 502.08 130.48 502.034 130.36C501.96 130.221 501.85 130.105 501.716 130.022C499.473 128.397 497.127 126.919 494.694 125.596C488.928 122.361 482.58 120.298 476.014 119.525C467.448 118.631 458.828 120.625 451.525 125.189C449.165 126.687 446.926 128.37 444.831 130.221C444.751 130.28 444.683 130.354 444.632 130.439C444.589 130.55 444.57 130.669 444.577 130.787C444.577 135.238 444.577 139.693 444.577 144.143V209.654" stroke="#313131" stroke-width="2" stroke-miterlimit="10"></path>
<path d="M451.52 209.511H439.718V216.606H451.52V209.511Z" stroke="#313131" stroke-width="1.89" stroke-miterlimit="10"></path>
<path d="M506.784 209.511H494.982V216.606H506.784V209.511Z" stroke="#313131" stroke-width="1.89" stroke-miterlimit="10"></path>
<path d="M292.035 217.188V219.415H216.5V217.188H292.035ZM293.179 216.044H215.376V220.539H293.179V216.064V216.044Z" fill="#313131"></path>
<path d="M289.727 220.818V223.115H218.807V220.818H289.727ZM290.831 219.709H217.723V224.224H290.831V219.709Z" fill="#313131"></path>
<path d="M284.281 209.654V136.207C284.281 134.383 284.281 132.553 284.281 130.738C284.291 130.609 284.272 130.48 284.227 130.36C284.151 130.222 284.041 130.106 283.908 130.022C281.665 128.397 279.32 126.919 276.886 125.596C271.119 122.362 264.769 120.298 258.201 119.525C249.637 118.631 241.019 120.625 233.717 125.189C231.356 126.686 229.118 128.369 227.023 130.221C226.943 130.28 226.876 130.354 226.824 130.439C226.779 130.549 226.76 130.669 226.77 130.787C226.77 135.236 226.77 139.688 226.77 144.143V209.654" stroke="#313131" stroke-width="2" stroke-miterlimit="10"></path>
<path d="M233.712 209.511H221.911V216.606H233.712V209.511Z" stroke="#313131" stroke-width="1.89" stroke-miterlimit="10"></path>
<path d="M288.971 209.511H277.169V216.606H288.971V209.511Z" stroke="#313131" stroke-width="1.89" stroke-miterlimit="10"></path>
<path d="M729.739 219.709H656.606V224.219H729.739V219.709Z" stroke="#313131" stroke-width="2" stroke-miterlimit="10"></path>
<path d="M723.189 209.654V136.207C723.189 134.383 723.189 132.553 723.189 130.738C723.198 130.609 723.18 130.48 723.134 130.36C723.058 130.222 722.949 130.106 722.816 130.022C720.573 128.397 718.227 126.919 715.793 125.596C710.026 122.362 703.676 120.298 697.109 119.525C688.544 118.631 679.926 120.625 672.625 125.189C670.274 126.684 668.046 128.363 665.961 130.211C665.881 130.27 665.813 130.344 665.762 130.429C665.716 130.539 665.697 130.659 665.707 130.778C665.707 135.226 665.707 139.678 665.707 144.133V209.654" stroke="#313131" stroke-width="2" stroke-miterlimit="10"></path>
<path d="M672.62 209.511H660.818V216.606H672.62V209.511Z" stroke="#313131" stroke-width="2" stroke-miterlimit="10"></path>
<path d="M727.879 209.511H716.077V216.606H727.879V209.511Z" stroke="#313131" stroke-width="2" stroke-miterlimit="10"></path>
<path d="M758.559 251.865H538.071V255.326H758.559V251.865Z" stroke="#313131" stroke-width="2" stroke-miterlimit="10"></path>
<path d="M535.585 248.086H511.334V252.407H535.585V248.086Z" stroke="#313131" stroke-width="2" stroke-miterlimit="10"></path>
<path d="M787.086 249.712H762.836V254.033H787.086V249.712Z" stroke="#313131" stroke-width="2" stroke-miterlimit="10"></path>
<path d="M400.946 251.537H195.736V254.665H400.946V251.537Z" stroke="#313131" stroke-width="1.83" stroke-miterlimit="10"></path>
<path d="M192.707 251.074H168.457V255.395H192.707V251.074Z" stroke="#313131" stroke-width="2" stroke-miterlimit="10"></path>
<path d="M166 251.074H141.75V255.395H166V251.074Z" stroke="#313131" stroke-width="2" stroke-miterlimit="10"></path>
<path d="M166 257.553H147.415V260.864H166V257.553Z" stroke="#313131" stroke-width="2" stroke-miterlimit="10"></path>
<path d="M165.995 263.525H151.289V266.837H165.995V263.525Z" stroke="#313131" stroke-width="2" stroke-miterlimit="10"></path>
<path d="M786.803 257.856H761.991V390.912H786.803V257.856Z" stroke="#313131" stroke-width="2" stroke-miterlimit="10"></path>
<path d="M786.803 96.6133H761.991V246.585H786.803V96.6133Z" stroke="#313131" stroke-width="2" stroke-miterlimit="10"></path>
<path d="M540.16 86.748H509.708V93.6646H540.16V86.748Z" stroke="#313131" stroke-width="1.78" stroke-miterlimit="10"></path>
<path d="M434.596 86.748H404.144V93.6646H434.596V86.748Z" stroke="#313131" stroke-width="1.78" stroke-miterlimit="10"></path>
<path d="M506.953 90.2227H436.898V95.7669H506.953V90.2227Z" stroke="#313131" stroke-width="1.92" stroke-miterlimit="10"></path>
<path d="M791.11 85.1963H760.658V93.6593H791.11V85.1963Z" stroke="#313131" stroke-width="2" stroke-miterlimit="10"></path>
<path d="M758.326 88.6973H543.502V97.1304H758.326V88.6973Z" stroke="#313131" stroke-width="2" stroke-miterlimit="10"></path>
<path d="M471.647 291.967H448.526V318.465H471.647V291.967Z" stroke="#313131" stroke-width="2" stroke-miterlimit="10"></path>
<path d="M471.647 326.923H448.526V368.924H471.647V326.923Z" stroke="#313131" stroke-width="2" stroke-miterlimit="10"></path>
<path d="M498.647 326.923H475.526V368.924H498.647V326.923Z" stroke="#313131" stroke-width="2" stroke-miterlimit="10"></path>
<path d="M498.647 291.967H475.526V318.465H498.647V291.967Z" stroke="#313131" stroke-width="2" stroke-miterlimit="10"></path>
<path d="M786.803 394.438H505.272V406.699H786.803V394.438Z" stroke="#313131" stroke-width="2" stroke-miterlimit="10"></path>
<path d="M441.693 394.438H159.948V406.699H441.693V394.438Z" stroke="#313131" stroke-width="2" stroke-miterlimit="10"></path>
<path d="M501.412 404.188V405.864H445.507V404.188H501.412ZM502.407 403.193H444.512V406.858H502.407V403.193Z" fill="#313131"></path>
<path d="M532.262 105.633H517.601V245.172H532.262V105.633Z" stroke="#313131" stroke-width="2" stroke-miterlimit="10"></path>
<path d="M531.979 256.166H517.317V391.195H531.979V256.166Z" stroke="#313131" stroke-width="1.97" stroke-miterlimit="10"></path>
<path d="M527.125 171.312H524.021V178.925H527.125V171.312Z" fill="#313131" stroke="#313131" stroke-width="1.97" stroke-miterlimit="10"></path>
<path d="M648.504 171.312H645.401V178.925H648.504V171.312Z" fill="#313131" stroke="#313131" stroke-width="1.97" stroke-miterlimit="10"></path>
<path d="M773.554 171.312H770.451V178.925H773.554V171.312Z" fill="#313131" stroke="#313131" stroke-width="1.97" stroke-miterlimit="10"></path>
<path d="M773.554 323.541H770.451V331.154H773.554V323.541Z" fill="#313131" stroke="#313131" stroke-width="1.97" stroke-miterlimit="10"></path>
<path d="M647.942 323.541H644.839V331.154H647.942V323.541Z" fill="#313131" stroke="#313131" stroke-width="1.97" stroke-miterlimit="10"></path>
<path d="M526.563 323.541H523.459V331.154H526.563V323.541Z" fill="#313131" stroke="#313131" stroke-width="1.97" stroke-miterlimit="10"></path>
<path d="M426.668 256.166H412.007V391.195H426.668V256.166Z" stroke="#313131" stroke-width="1.97" stroke-miterlimit="10"></path>
<path d="M421.252 323.541H418.149V331.154H421.252V323.541Z" fill="#313131" stroke="#313131" stroke-width="1.97" stroke-miterlimit="10"></path>
<path d="M303.255 323.541H300.151V331.154H303.255V323.541Z" fill="#313131" stroke="#313131" stroke-width="1.97" stroke-miterlimit="10"></path>
<path d="M180.607 323.541H177.504V331.154H180.607V323.541Z" fill="#313131" stroke="#313131" stroke-width="1.97" stroke-miterlimit="10"></path>
<path d="M303.255 171.735H300.151V179.348H303.255V171.735Z" fill="#313131" stroke="#313131" stroke-width="1.97" stroke-miterlimit="10"></path>
<path d="M180.607 171.735H177.504V179.348H180.607V171.735Z" fill="#313131" stroke="#313131" stroke-width="1.97" stroke-miterlimit="10"></path>
<path d="M533.431 96.7278C526.324 96.693 519.287 96.6334 512.11 96.6781C513.354 98.8908 514.567 101.153 515.975 103.257C516.023 103.357 516.094 103.444 516.183 103.51C516.299 103.566 516.428 103.59 516.556 103.58C519.904 103.58 523.251 103.58 526.603 103.615C528.831 103.615 531.079 103.639 533.287 103.724C533.442 103.748 533.6 103.721 533.739 103.649C533.832 103.578 533.907 103.486 533.958 103.381C535.236 101.173 536.51 98.9704 537.758 96.7527C536.316 96.7278 534.873 96.7278 533.431 96.7278Z" stroke="#313131" stroke-width="2" stroke-miterlimit="10"></path>
<path d="M430.697 248.086H406.447V252.407H430.697V248.086Z" stroke="#313131" stroke-width="2" stroke-miterlimit="10"></path>
<path d="M427.096 105.633H412.435V245.172H427.096V105.633Z" stroke="#313131" stroke-width="2" stroke-miterlimit="10"></path>
<path d="M422.237 171.312H419.134V178.925H422.237V171.312Z" fill="#313131" stroke="#313131" stroke-width="1.97" stroke-miterlimit="10"></path>
<path d="M428.329 96.7278C421.222 96.693 414.18 96.6334 407.004 96.6781C408.247 98.8908 409.461 101.153 410.873 103.257C410.921 103.355 410.991 103.442 411.077 103.51C411.195 103.566 411.325 103.59 411.455 103.58C417.026 103.58 422.418 103.543 428.098 103.543C428.233 103.579 428.376 103.564 428.5 103.5C428.624 103.437 428.72 103.33 428.77 103.2C430.048 100.992 431.403 98.9704 432.651 96.7527C431.219 96.7278 429.772 96.7278 428.329 96.7278Z" stroke="#313131" stroke-width="2" stroke-miterlimit="10"></path>
<path d="M944.383 413.029H24.9314V429.378H944.383V413.029Z" stroke="#313131" stroke-width="2.5" stroke-miterlimit="10"></path>
<path d="M532.755 59.4004H518.655V83.6456H532.755V59.4004Z" stroke="#313131" stroke-width="2" stroke-miterlimit="10"></path>
<path d="M534.023 55.7344H517.387V57.8476H534.023V55.7344Z" stroke="#313131" stroke-miterlimit="10"></path>
<path d="M530.78 52.2148H520.629V54.1889H530.78V52.2148Z" stroke="#313131" stroke-miterlimit="10"></path>
<path d="M501.467 41.7832H444.229V43.8965H501.467V41.7832Z" stroke="#313131" stroke-width="2" stroke-miterlimit="10"></path>
<path d="M490.307 37.7598H455.384V39.7338H490.307V37.7598Z" stroke="#313131" stroke-miterlimit="10"></path>
<path d="M525.702 50.3394C529.051 50.3394 531.765 47.6257 531.765 44.2781C531.765 40.9305 529.051 38.2168 525.702 38.2168C522.354 38.2168 519.64 40.9305 519.64 44.2781C519.64 47.6257 522.354 50.3394 525.702 50.3394Z" stroke="#313131" stroke-width="2" stroke-miterlimit="10"></path>
<path d="M426.549 59.4004H412.449V83.6456H426.549V59.4004Z" stroke="#313131" stroke-width="2" stroke-miterlimit="10"></path>
<path d="M427.817 55.7344H411.181V57.8476H427.817V55.7344Z" stroke="#313131" stroke-miterlimit="10"></path>
<path d="M424.574 52.2148H414.424V54.1889H424.574V52.2148Z" stroke="#313131" stroke-miterlimit="10"></path>
<path d="M419.502 50.3394C422.85 50.3394 425.564 47.6257 425.564 44.2781C425.564 40.9305 422.85 38.2168 419.502 38.2168C416.153 38.2168 413.439 40.9305 413.439 44.2781C413.439 47.6257 416.153 50.3394 419.502 50.3394Z" stroke="#313131" stroke-width="2" stroke-miterlimit="10"></path>
<path d="M508.092 226.004H434.924V247.146H508.092V226.004Z" stroke="#313131" stroke-width="1.98" stroke-miterlimit="10"></path>
<path d="M509.265 251.532H433.327V254.476H509.265V251.532Z" stroke="#313131" stroke-width="1.71" stroke-miterlimit="10"></path>
<path d="M433.327 100.934H511.145" stroke="#313131" stroke-miterlimit="10"></path>
<path d="M431.07 104.131H513.403" stroke="#313131" stroke-miterlimit="10"></path>
<path d="M542.905 100.934H753.352" stroke="#313131" stroke-miterlimit="10"></path>
<path d="M536.803 104.131H759.454" stroke="#313131" stroke-miterlimit="10"></path>
<path d="M764.9 100.745H784.451" stroke="#313131" stroke-width="2" stroke-miterlimit="10"></path>
<path d="M768.551 104.131H784.525" stroke="#313131" stroke-width="2" stroke-miterlimit="10"></path>
<path d="M795.755 76.3154H535.231V83.0828H795.755V76.3154Z" stroke="#313131" stroke-width="2" stroke-miterlimit="10"></path>
<path d="M791.93 66.7988H776.424V73.8447H791.93V66.7988Z" stroke="#313131" stroke-width="2" stroke-miterlimit="10"></path>
<path d="M631 66H589V68H631V66Z" stroke="#313131" stroke-miterlimit="10"></path>
<path d="M629.377 70.1152H591.032V75.9428H629.377V70.1152Z" stroke="#313131" stroke-width="2" stroke-miterlimit="10"></path>
<path d="M601.417 72.3672H596.344V75.7484H601.417V72.3672Z" fill="#313131"></path>
<path d="M611.144 72.3672H606.072V75.7484H611.144V72.3672Z" fill="#313131"></path>
<path d="M621.151 72.3672H616.078V75.7484H621.151V72.3672Z" fill="#313131"></path>
<path d="M169.601 248.768H191.2L191.2 99.4325H169.601L169.601 248.768Z" stroke="#313131" stroke-width="1.85" stroke-miterlimit="10"></path>
<path d="M148.519 248.976H165.767L165.767 99.4268H148.519L148.519 248.976Z" stroke="#313131" stroke-width="1.91" stroke-miterlimit="10"></path>
<path d="M169.601 390.842H191.2L191.2 257.856H169.601L169.601 390.842Z" stroke="#313131" stroke-width="1.75" stroke-miterlimit="10"></path>
<path d="M128.158 96.4785H184.576V88.0156H128.158V96.4785Z" stroke="#313131" stroke-width="2" stroke-miterlimit="10"></path>
<path d="M186.913 96.4687L401.737 96.4688V88.0356L186.913 88.0356V96.4687Z" stroke="#313131" stroke-width="1.99" stroke-miterlimit="10"></path>
<path d="M404.194 101.053H198.223" stroke="#313131" stroke-miterlimit="10"></path>
<path d="M408.008 104.057H194.557" stroke="#313131" stroke-miterlimit="10"></path>
<path d="M189.788 103.564H174.022" stroke="#313131" stroke-width="2" stroke-miterlimit="10"></path>
<path d="M186.137 106.95H176.28" stroke="#313131" stroke-width="2" stroke-miterlimit="10"></path>
<path d="M160.793 103.564H150.732" stroke="#313131" stroke-width="2" stroke-miterlimit="10"></path>
<path d="M159.634 106.95H151.916" stroke="#313131" stroke-width="2" stroke-miterlimit="10"></path>
<path d="M148.489 82.9189L409.013 82.9189V76.1516L148.489 76.1516V82.9189Z" stroke="#313131" stroke-width="2" stroke-miterlimit="10"></path>
<path d="M153.313 73.6797H168.82V66.6339H153.313V73.6797Z" stroke="#313131" stroke-width="2" stroke-miterlimit="10"></path>
<path d="M303.424 75.7734H341.768V69.9458H303.424V75.7734Z" stroke="#313131" stroke-width="2" stroke-miterlimit="10"></path>
<path d="M331.389 75.585H336.462V72.2038H331.389V75.585Z" fill="#313131"></path>
<path d="M321.661 75.585H326.734V72.2038H321.661V75.585Z" fill="#313131"></path>
<path d="M311.655 75.585H316.728V72.2038H311.655V75.585Z" fill="#313131"></path>
<path d="M515.283 64.4766V82.8942H429.19V64.4766" stroke="#313131" stroke-width="2" stroke-miterlimit="10"></path>
<path d="M515.895 62.5522C508.932 62.2041 502.253 59.0715 500.786 51.6876C500.464 49.8412 500.286 47.9726 500.254 46.0986" stroke="#313131" stroke-width="2" stroke-miterlimit="10"></path>
<path d="M429.727 61.9653C436.689 61.6172 443.369 58.4846 444.841 51.1007C445.158 49.2538 445.335 47.3854 445.368 45.5117" stroke="#313131" stroke-width="2" stroke-miterlimit="10"></path>
<path d="M470.215 34.572L469.797 35.1439C469.797 35.1439 465.048 33.687 465.709 27.0141C465.709 27.0141 453.609 26.4273 452.147 21.1367L452.316 21.1864L467.823 25.9351C467.823 25.9351 465.52 30.6787 470.807 33.7317L470.215 34.572Z" fill="#313131"></path>
<path d="M454.335 25.9648L464.719 27.7052V28.6996C464.719 28.6996 456.827 29.724 454.335 25.9648Z" fill="#313131"></path>
<path d="M457.035 29.2031L464.794 29.7004L464.958 30.4661C464.958 30.4661 459.671 31.5053 457.035 29.2031Z" fill="#313131"></path>
<path d="M465.226 30.9482L465.495 31.6245C465.495 31.6245 461.904 33.6134 459.273 31.9576L465.226 30.9482Z" fill="#313131"></path>
<path d="M465.619 32.1416L465.938 32.783C465.938 32.783 463.183 35.12 460.746 33.7775L465.619 32.1416Z" fill="#313131"></path>
<path d="M466.112 33.2002L466.539 33.7621C466.539 33.7621 464.779 36.5168 462.377 35.6814L466.112 33.2002Z" fill="#313131"></path>
<path d="M472.657 34.572L473.075 35.1439C473.075 35.1439 477.819 33.687 477.163 27.0141C477.163 27.0141 489.263 26.4273 490.725 21.1367L490.556 21.1864L475.049 25.9351C475.049 25.9351 477.352 30.6787 472.065 33.7317L472.657 34.572Z" fill="#313131"></path>
<path d="M488.532 25.9648L478.147 27.7052V28.6996C478.147 28.6996 486.045 29.724 488.532 25.9648Z" fill="#313131"></path>
<path d="M485.836 29.2031L478.073 29.7004L477.908 30.4661C477.908 30.4661 483.195 31.5053 485.836 29.2031Z" fill="#313131"></path>
<path d="M477.645 30.9482L477.376 31.6245C477.376 31.6245 480.962 33.6134 483.598 31.9576L477.645 30.9482Z" fill="#313131"></path>
<path d="M477.252 32.1416L476.929 32.783C476.929 32.783 479.684 35.12 482.121 33.7775L477.252 32.1416Z" fill="#313131"></path>
<path d="M476.76 33.2002L476.327 33.7621C476.327 33.7621 478.088 36.5168 480.49 35.6814L476.76 33.2002Z" fill="#313131"></path>
<path d="M471.513 26.3235C472.925 26.3235 474.069 25.1548 474.069 23.713C474.069 22.2713 472.925 21.1025 471.513 21.1025C470.101 21.1025 468.957 22.2713 468.957 23.713C468.957 25.1548 470.101 26.3235 471.513 26.3235Z" fill="#313131"></path>
<path d="M363.308 51.792H346.956V68.708H363.308V51.792Z" stroke="#313131" stroke-width="2" stroke-miterlimit="10"></path>
<path d="M362.179 71.0996H347.801V74.2024H362.179V71.0996Z" stroke="#313131" stroke-width="2" stroke-miterlimit="10"></path>
<path d="M349.353 54.1836H361.333" stroke="#313131" stroke-miterlimit="10"></path>
<path d="M349.353 56.2324H361.333" stroke="#313131" stroke-miterlimit="10"></path>
<path d="M349.353 58.2764H361.333" stroke="#313131" stroke-miterlimit="10"></path>
<path d="M349.353 60.3193H361.333" stroke="#313131" stroke-miterlimit="10"></path>
<path d="M349.353 62.3633H361.333" stroke="#313131" stroke-miterlimit="10"></path>
<path d="M349.353 64.4072H361.333" stroke="#313131" stroke-miterlimit="10"></path>
<path d="M349.353 66.4512H361.333" stroke="#313131" stroke-miterlimit="10"></path>
<path d="M166.105 270.541H159.858V391.474H166.105V270.541Z" stroke="#313131" stroke-width="2" stroke-miterlimit="10"></path>
<path d="M406.412 108.582H197.203V245.586H406.412V108.582Z" stroke="#313131" stroke-width="1.96" stroke-miterlimit="10" stroke-linecap="round"></path>
<path d="M406.412 259.115H197.203V388.789H406.412V259.115Z" stroke="#313131" stroke-width="1.91" stroke-miterlimit="10" stroke-linecap="round"></path>
<path d="M637.294 217.058V219.544H561.461V217.058H637.294ZM638.289 216.063H560.466V220.539H638.289V216.063Z" fill="#313131"></path>
<path d="M628.815 370.854V373.375H571.591V370.854H628.815ZM629.809 369.859H570.597V374.369H629.809V369.859Z" fill="#313131"></path>
<path d="M722.985 370.854V373.375H665.767V370.854H722.985ZM723.98 369.859H664.772V374.369H723.98V369.859Z" fill="#313131"></path>
<path d="M731.111 217.058V219.544H655.258V217.058H731.111ZM732.106 216.063H654.263V220.539H732.106V216.063Z" fill="#313131"></path>
<path d="M672.57 215.591V147.336C672.57 143.755 672.57 140.175 672.57 136.595C672.546 136.446 672.573 136.293 672.647 136.161C672.721 136.029 672.838 135.926 672.978 135.869C676.939 133.325 681.35 131.562 685.973 130.673C688.334 130.234 690.729 130.004 693.13 129.987C696.754 129.968 700.367 130.404 703.882 131.285C707.911 132.279 711.68 133.96 715.391 135.79C715.489 135.827 715.576 135.889 715.644 135.969C715.7 136.077 715.725 136.2 715.714 136.322C715.714 141.573 715.714 146.825 715.714 152.079V216.605H672.575L672.57 215.591Z" stroke="#313131" stroke-width="2" stroke-miterlimit="10"></path>
<path d="M677.429 139.261C678.001 138.903 678.737 138.585 679.085 138.401C680.077 137.874 681.1 137.409 682.149 137.008C685.126 135.856 688.259 135.157 691.444 134.935C698.407 134.438 704.976 136.591 711.218 139.47C711.368 139.501 711.499 139.59 711.584 139.717C711.669 139.845 711.7 140.001 711.671 140.151C711.671 146.781 711.671 153.422 711.671 160.075L676.638 159.971C676.638 153.422 676.638 146.869 676.638 140.32C676.633 140.218 676.643 140.116 676.668 140.017C676.733 139.763 677.046 139.49 677.429 139.261Z" stroke="#313131" stroke-width="2" stroke-miterlimit="10"></path>
<path d="M692.493 165.217H676.703V212.151H692.493V165.217Z" stroke="#313131" stroke-width="2" stroke-miterlimit="10"></path>
<path d="M711.676 165.217H695.885V212.151H711.676V165.217Z" stroke="#313131" stroke-width="2" stroke-miterlimit="10"></path>
<path d="M439.857 68.5636V78.8515H505.555V69.8316L487.368 55.5957H454.663L439.857 68.5636Z" stroke="#313131" stroke-width="2" stroke-miterlimit="10"></path>
<path d="M454.663 58.624H487.447L503.297 70.4334V77.2256" stroke="#313131" stroke-width="1.07" stroke-miterlimit="10"></path>
<path d="M446.869 234.023V234.859L442.607 237.415L438.355 234.859V234.023L442.607 236.574L446.869 234.023Z" fill="#313131"></path>
<path d="M444.035 234.858L442.612 235.714L441.185 234.858H444.035Z" fill="#313131"></path>
<path d="M444.035 239.985L442.607 239.13L441.185 239.985H444.035Z" fill="#313131"></path>
<path d="M446.869 235.738V236.574L442.607 239.129L438.355 236.574V235.738L442.607 238.289L446.869 235.738Z" fill="#313131"></path>
<path d="M503.943 229.264H438.335V229.86H503.943V229.264Z" fill="#313131"></path>
<path d="M503.943 228.066H438.335V228.663H503.943V228.066Z" fill="#313131"></path>
<path d="M503.943 245.369H438.335V245.966H503.943V245.369Z" fill="#313131"></path>
<path d="M503.943 244.172H438.335V244.769H503.943V244.172Z" fill="#313131"></path>
<path d="M456.806 234.019H457.388L459.173 237.002L457.388 239.975H456.806L458.586 237.002L456.806 234.019Z" fill="#313131"></path>
<path d="M458.004 234.018H458.591L460.377 237.001L458.591 239.974H458.004L459.79 237.001L458.004 234.018Z" fill="#313131"></path>
<path d="M503.963 234.023H503.376L501.591 237.007L503.376 239.98H503.963L502.183 237.007L503.963 234.023Z" fill="#313131"></path>
<path d="M502.765 234.023H502.178L500.392 237.007L502.178 239.98H502.765L500.979 237.007L502.765 234.023Z" fill="#313131"></path>
<path d="M467.344 238.548C467.387 238.976 467.27 239.405 467.016 239.752C466.851 239.887 466.66 239.988 466.455 240.049C466.25 240.109 466.035 240.128 465.822 240.105C465.387 240.147 464.952 240.019 464.609 239.747C464.473 239.587 464.371 239.402 464.308 239.202C464.245 239.002 464.222 238.792 464.241 238.583C464.241 238.533 464.241 238.384 464.241 238.141H465.395V238.255C465.395 238.31 465.395 238.345 465.395 238.364C465.386 238.512 465.403 238.66 465.444 238.802C465.467 238.869 465.51 238.926 465.569 238.965C465.628 239.004 465.698 239.022 465.768 239.016C466.021 239.016 466.146 238.862 466.146 238.543C466.154 238.363 466.121 238.183 466.051 238.016C465.944 237.845 465.805 237.695 465.643 237.574C465.308 237.298 464.987 237.004 464.684 236.694C464.483 236.499 464.339 236.253 464.266 235.983C464.238 235.795 464.226 235.605 464.231 235.416C464.21 235.208 464.232 234.998 464.297 234.799C464.362 234.6 464.469 234.417 464.609 234.262C464.965 233.993 465.408 233.867 465.852 233.909C466.052 233.891 466.254 233.915 466.444 233.979C466.634 234.043 466.809 234.146 466.956 234.282C467.215 234.624 467.337 235.049 467.3 235.475C467.3 235.535 467.3 235.65 467.3 235.819H466.141V235.625C466.148 235.488 466.136 235.351 466.106 235.217C466.09 235.151 466.051 235.093 465.996 235.053C465.942 235.013 465.875 234.994 465.808 234.998C465.559 234.998 465.44 235.157 465.44 235.495C465.435 235.674 465.491 235.85 465.599 235.993C465.723 236.13 465.86 236.257 466.006 236.37C466.349 236.642 466.67 236.94 466.966 237.261C467.038 237.352 467.103 237.448 467.16 237.549C467.233 237.678 467.29 237.815 467.329 237.957C467.349 238.153 467.354 238.351 467.344 238.548Z" fill="#313131"></path>
<path d="M474.829 238.548C474.876 238.981 474.759 239.415 474.501 239.766C474.157 240.03 473.724 240.152 473.293 240.104C473.078 240.157 472.853 240.154 472.64 240.095C472.427 240.035 472.233 239.921 472.078 239.765C471.922 239.608 471.809 239.413 471.751 239.2C471.693 238.987 471.691 238.762 471.746 238.548V235.465C471.699 235.031 471.818 234.596 472.079 234.247C472.425 233.983 472.86 233.862 473.293 233.909C473.724 233.861 474.157 233.982 474.501 234.247C474.758 234.598 474.875 235.032 474.829 235.465V238.548ZM473.67 238.473V235.49C473.678 235.361 473.659 235.233 473.616 235.112C473.584 235.056 473.536 235.01 473.479 234.981C473.421 234.952 473.357 234.94 473.293 234.948C473.039 234.948 472.915 235.122 472.915 235.48V238.513C472.915 238.871 473.034 239.05 473.278 239.05C473.346 239.059 473.416 239.046 473.477 239.013C473.537 238.98 473.586 238.928 473.616 238.866C473.656 238.746 473.675 238.62 473.67 238.493V238.473Z" fill="#313131"></path>
<path d="M482.976 239.985H481.697L480.703 237.047V239.985H479.569V234.019H480.733V236.853L481.668 234.019H482.896L481.817 236.903L482.976 239.985Z" fill="#313131"></path>
<path d="M490.232 238.548C490.28 238.981 490.16 239.417 489.898 239.766C489.556 240.03 489.125 240.151 488.695 240.104C488.48 240.157 488.256 240.154 488.043 240.095C487.83 240.035 487.636 239.921 487.48 239.765C487.324 239.608 487.212 239.413 487.153 239.2C487.095 238.987 487.093 238.762 487.148 238.548V235.465C487.101 235.031 487.22 234.596 487.481 234.247C487.828 233.983 488.262 233.862 488.695 233.908C489.125 233.861 489.556 233.982 489.898 234.247C490.16 234.596 490.279 235.031 490.232 235.465V238.548ZM489.068 238.493V235.51C489.076 235.382 489.059 235.253 489.018 235.132C488.986 235.076 488.939 235.03 488.881 235.001C488.824 234.972 488.759 234.96 488.695 234.968C488.441 234.968 488.317 235.142 488.317 235.5V238.533C488.317 238.891 488.436 239.07 488.675 239.07C488.744 239.079 488.815 239.066 488.876 239.033C488.938 239 488.987 238.948 489.018 238.886C489.059 238.759 489.076 238.626 489.068 238.493Z" fill="#313131"></path>
<path d="M497.473 239.985H494.987V237.579L494.653 237.798V236.888L494.987 236.659V234.019H496.19V235.933L496.871 235.49V236.41L496.19 236.853V238.891H497.473V239.985Z" fill="#313131"></path>
<path d="M489.7 232.824L488.7 233.426L487.705 232.824H489.7Z" fill="#313131"></path>
<path d="M451.718 234.053H452.489C452.618 234.045 452.746 234.076 452.857 234.143C452.899 234.171 452.933 234.21 452.955 234.255C452.978 234.3 452.989 234.351 452.986 234.401C452.988 234.446 452.979 234.491 452.962 234.533C452.945 234.575 452.919 234.613 452.887 234.645C452.803 234.715 452.698 234.755 452.589 234.759L452.708 234.794C452.74 234.81 452.77 234.83 452.797 234.854C452.869 234.927 452.92 235.018 452.947 235.117C452.949 235.139 452.949 235.16 452.947 235.182C452.963 235.231 452.994 235.275 453.036 235.306C453.086 235.329 453.141 235.339 453.195 235.336H453.22V235.46H453.061H452.932C452.872 235.461 452.813 235.451 452.758 235.43C452.709 235.414 452.665 235.387 452.628 235.351C452.582 235.288 452.551 235.214 452.539 235.137C452.527 235.104 452.517 235.071 452.509 235.038C452.49 234.977 452.456 234.922 452.41 234.878C452.361 234.846 452.304 234.83 452.245 234.834V235.276L452.28 235.316H452.419V235.435H451.718V235.316H451.853L451.882 235.276V234.197L451.853 234.167H451.718V234.053ZM452.25 234.192V234.69H452.3C452.381 234.695 452.461 234.67 452.524 234.62C452.552 234.595 452.573 234.564 452.587 234.53C452.601 234.495 452.607 234.458 452.604 234.421C452.605 234.388 452.599 234.355 452.587 234.324C452.575 234.294 452.557 234.266 452.534 234.242C452.509 234.218 452.479 234.2 452.446 234.188C452.414 234.176 452.379 234.171 452.345 234.172L452.25 234.192Z" fill="#313131"></path>
<path d="M452.459 236.301C452.666 236.287 452.871 236.353 453.031 236.485C453.097 236.549 453.149 236.627 453.183 236.712C453.218 236.798 453.233 236.89 453.23 236.982C453.236 237.079 453.222 237.176 453.188 237.267C453.153 237.358 453.1 237.44 453.031 237.509C452.87 237.638 452.666 237.701 452.459 237.688H451.718V237.569H451.862L451.892 237.529V236.46L451.862 236.42H451.718V236.301H452.459ZM452.275 236.44V237.569H452.36C452.423 237.574 452.487 237.564 452.546 237.54C452.605 237.516 452.657 237.478 452.698 237.429C452.77 237.299 452.808 237.153 452.808 237.004C452.808 236.855 452.77 236.709 452.698 236.579C452.656 236.531 452.604 236.494 452.545 236.47C452.487 236.446 452.423 236.435 452.36 236.44H452.275Z" fill="#313131"></path>
<path d="M451.718 239.985V239.866H451.862L451.892 239.826V238.747L451.862 238.717H451.718V238.593H452.424V238.717H452.3L452.27 238.742V239.274H452.315L452.783 238.742V238.717H452.653V238.593H453.18V238.717H453.021L452.643 239.145L453.086 239.856H453.24V239.985H452.713V239.905L452.395 239.378H452.295V239.816L452.325 239.856H452.449V239.985H451.718Z" fill="#313131"></path>
<path d="M451.968 72.8306C452.026 73.4681 451.85 74.105 451.47 74.6207C451.147 74.9688 450.555 75.1478 449.69 75.1478C449.041 75.2124 448.393 75.0195 447.884 74.6107C447.681 74.3739 447.528 74.0987 447.433 73.8015C447.338 73.5043 447.304 73.191 447.332 72.8804C447.332 72.8058 447.332 72.582 447.357 72.219H449.078V72.3931C449.074 72.446 449.074 72.4992 449.078 72.5522C449.067 72.7719 449.092 72.9921 449.153 73.2036C449.19 73.3037 449.258 73.3892 449.348 73.4474C449.437 73.5056 449.543 73.5334 449.65 73.5268C450.028 73.5268 450.212 73.2881 450.212 72.8157C450.225 72.5462 450.176 72.2774 450.068 72.0301C449.91 71.7759 449.706 71.5534 449.466 71.3737C448.964 70.9638 448.486 70.5256 448.034 70.061C447.739 69.7684 447.523 69.4057 447.407 69.0069C447.37 68.725 447.354 68.4409 447.357 68.1566C447.328 67.8474 447.363 67.5355 447.459 67.2403C447.556 66.9451 447.713 66.6731 447.919 66.4412C448.45 66.0397 449.112 65.8517 449.774 65.9141C450.072 65.8872 450.373 65.9228 450.656 66.0187C450.94 66.1146 451.2 66.2687 451.421 66.471C451.802 66.98 451.979 67.6131 451.918 68.2461C451.918 68.3356 451.918 68.5047 451.918 68.7434H450.187V68.4599C450.194 68.2548 450.178 68.0496 450.137 67.8483C450.11 67.7509 450.051 67.6656 449.968 67.6068C449.886 67.548 449.786 67.5192 449.685 67.5251C449.322 67.5251 449.138 67.7638 449.138 68.2362C449.126 68.513 449.21 68.7853 449.376 69.0069C449.563 69.2121 449.768 69.4001 449.988 69.5688C450.498 69.977 450.977 70.4224 451.421 70.9014C451.524 71.0359 451.619 71.1771 451.704 71.324C451.815 71.5152 451.899 71.7211 451.953 71.9356C451.983 72.233 451.988 72.5324 451.968 72.8306Z" fill="#313131"></path>
<path d="M463.128 72.8305C463.128 73.7006 462.964 74.3222 462.63 74.6404C462.297 74.9586 461.7 75.1376 460.83 75.1376C459.96 75.1376 459.338 74.9686 459.02 74.6404C458.633 74.1207 458.456 73.4748 458.522 72.8305V68.231C458.455 67.5866 458.632 66.9404 459.02 66.4211C459.353 66.0829 459.955 65.9238 460.83 65.9238C461.705 65.9238 462.322 66.0929 462.63 66.4211C462.939 66.7492 463.128 67.3609 463.128 68.231V72.8305ZM461.392 72.7161V68.2807C461.404 68.092 461.378 67.9028 461.317 67.7238C461.269 67.6367 461.196 67.5659 461.108 67.5207C461.019 67.4755 460.919 67.4579 460.82 67.4702C460.442 67.4702 460.258 67.7387 460.258 68.2708V72.7907C460.258 73.3227 460.437 73.5863 460.795 73.5863C460.896 73.5968 460.998 73.5763 461.087 73.5274C461.176 73.4785 461.247 73.4036 461.293 73.3128C461.364 73.1221 461.397 72.9195 461.392 72.7161Z" fill="#313131"></path>
<path d="M475.263 74.9685H473.358L471.866 70.5879V74.9685H470.135V66.0879H471.866V70.3144L473.264 66.0879H475.094L473.492 70.3741L475.263 74.9685Z" fill="#313131"></path>
<path d="M486.075 72.8305C486.075 73.7006 485.911 74.3222 485.577 74.6404C485.244 74.9586 484.652 75.1376 483.777 75.1376C482.902 75.1376 482.285 74.9686 481.972 74.6404C481.658 74.3122 481.474 73.7006 481.474 72.8305V68.231C481.474 67.3609 481.638 66.7393 481.972 66.4211C482.305 66.1028 482.907 65.9238 483.777 65.9238C484.647 65.9238 485.269 66.0929 485.577 66.4211C485.886 66.7492 486.075 67.3609 486.075 68.231V72.8305ZM484.344 72.7161V68.2807C484.356 68.092 484.33 67.9028 484.269 67.7238C484.221 67.6367 484.148 67.5659 484.06 67.5207C483.971 67.4755 483.871 67.4579 483.772 67.4702C483.399 67.4702 483.215 67.7387 483.215 68.2708V72.7907C483.215 73.3227 483.389 73.5863 483.747 73.5863C483.848 73.5968 483.95 73.5763 484.039 73.5274C484.128 73.4785 484.199 73.4036 484.245 73.3128C484.316 73.1221 484.349 72.9195 484.344 72.7161Z" fill="#313131"></path>
<path d="M496.867 74.9681H493.182V71.3681L492.684 71.6913V70.3736L493.182 70.0355V66.1123H494.972V68.9665L495.967 68.3051V69.6775L494.972 70.3388V73.357H496.867V74.9681Z" fill="#313131"></path>
<path d="M842.052 347.334C846.874 347.334 851.499 345.419 854.909 342.01C858.319 338.601 860.235 333.977 860.235 329.155" stroke="#313131" stroke-width="1.82" stroke-miterlimit="10" stroke-linecap="round"></path>
<path d="M838.675 343.281C836.838 343.282 835.018 342.921 833.32 342.218C831.623 341.515 830.08 340.485 828.781 339.186C827.482 337.887 826.451 336.345 825.749 334.647C825.046 332.95 824.684 331.131 824.685 329.294" stroke="#313131" stroke-width="1.82" stroke-miterlimit="10" stroke-linecap="round"></path>
<path d="M840.436 328.787L840.436 380.5" stroke="#313131" stroke-width="1.82" stroke-miterlimit="10" stroke-linecap="round"></path>
<path d="M858.489 293.056C858.26 293.056 858.026 293.056 857.798 293.056C857.524 288.076 855.434 283.37 851.923 279.827C848.413 276.284 843.725 274.151 838.747 273.83C833.77 273.51 828.847 275.025 824.911 278.088C820.975 281.152 818.299 285.552 817.389 290.455C813.981 291.075 810.77 292.498 808.022 294.607C805.275 296.716 803.07 299.45 801.591 302.581C800.112 305.713 799.402 309.153 799.519 312.614C799.636 316.075 800.577 319.459 802.264 322.483C803.951 325.508 806.335 328.087 809.219 330.005C812.103 331.924 815.403 333.127 818.845 333.515C822.287 333.903 825.772 333.464 829.011 332.236C832.25 331.007 835.148 329.024 837.467 326.45C839.269 330.208 842.046 333.414 845.508 335.734C848.971 338.055 852.992 339.404 857.153 339.643C861.315 339.882 865.464 339.001 869.169 337.092C872.875 335.183 876 332.316 878.221 328.789C880.441 325.262 881.676 321.205 881.795 317.039C881.914 312.873 880.915 308.752 878.9 305.104C876.885 301.455 873.929 298.414 870.339 296.296C866.749 294.178 862.657 293.061 858.489 293.061V293.056Z" stroke="#313131" stroke-width="1.82" stroke-miterlimit="10"></path>
<path d="M44.3772 350.318C35.1168 350.318 27.6121 342.705 27.6121 333.312" stroke="#313131" stroke-width="2" stroke-miterlimit="10" stroke-linecap="round"></path>
<path d="M47.4905 354.127C49.1964 354.115 50.8832 353.767 52.4545 353.102C54.0259 352.438 55.451 351.471 56.6485 350.256C57.846 349.042 58.7924 347.603 59.4338 346.022C60.0751 344.442 60.3988 342.751 60.3864 341.045" stroke="#313131" stroke-width="2" stroke-miterlimit="10" stroke-linecap="round"></path>
<path d="M45.8594 332.984V402.881" stroke="#313131" stroke-width="2" stroke-miterlimit="10" stroke-linecap="round"></path>
<path d="M61.2021 288.248C59.2696 285.08 56.5567 282.462 53.3227 280.642C50.0887 278.823 46.4419 277.863 42.7311 277.855C30.7055 277.855 20.9578 287.745 20.9578 299.943C20.9578 300.052 20.9578 300.166 20.9578 300.276C20.214 300.18 19.4648 300.132 18.7148 300.132C8.64377 300.132 0.477539 308.416 0.477539 318.629C0.477539 328.842 8.64377 337.131 18.7148 337.131C21.8314 337.125 24.894 336.317 27.6081 334.785C30.3221 333.254 32.5962 331.049 34.2117 328.385C36.487 332.722 39.9025 336.357 44.0905 338.898C48.2786 341.439 53.0805 342.789 57.9793 342.804C72.8994 342.804 84.9647 330.548 84.9647 315.456C84.9846 301.405 74.6002 289.859 61.2021 288.248Z" stroke="#313131" stroke-width="2" stroke-miterlimit="10" stroke-linecap="round"></path>
<path d="M69.1047 374.438H142.054" stroke="#313131" stroke-width="1.62" stroke-miterlimit="10" stroke-linecap="round"></path>
<path d="M69.1047 378.824H142.054" stroke="#313131" stroke-width="1.62" stroke-miterlimit="10" stroke-linecap="round"></path>
<path d="M69.1047 383.215H142.054" stroke="#313131" stroke-width="1.62" stroke-miterlimit="10" stroke-linecap="round"></path>
<path d="M80.0461 369.009V402.284" stroke="#313131" stroke-width="2.43" stroke-miterlimit="10" stroke-linecap="round"></path>
<path d="M129.436 369.009V402.284" stroke="#313131" stroke-width="2.43" stroke-miterlimit="10" stroke-linecap="round"></path>
<path d="M851.133 374.936H924.077" stroke="#313131" stroke-width="1.62" stroke-miterlimit="10" stroke-linecap="round"></path>
<path d="M851.133 379.321H924.077" stroke="#313131" stroke-width="1.62" stroke-miterlimit="10" stroke-linecap="round"></path>
<path d="M851.133 383.712H924.077" stroke="#313131" stroke-width="1.62" stroke-miterlimit="10" stroke-linecap="round"></path>
<path d="M862.07 369.506V402.781" stroke="#313131" stroke-width="2.43" stroke-miterlimit="10" stroke-linecap="round"></path>
<path d="M911.465 369.506V402.781" stroke="#313131" stroke-width="2.43" stroke-miterlimit="10" stroke-linecap="round"></path>
<path d="M942.295 408.241V309.321C942.297 308.372 942.113 307.431 941.751 306.554C941.39 305.676 940.858 304.878 940.188 304.206C939.518 303.534 938.721 303.001 937.845 302.637C936.968 302.273 936.028 302.086 935.078 302.086H900.265C898.35 302.086 896.514 302.846 895.16 304.199C893.806 305.552 893.045 307.387 893.043 309.301V314.02" stroke="#313131" stroke-width="2.51" stroke-miterlimit="10" stroke-linecap="round"></path>
<path d="M893.262 326.4C896.781 326.4 899.633 323.549 899.633 320.031C899.633 316.513 896.781 313.661 893.262 313.661C889.744 313.661 886.892 316.513 886.892 320.031C886.892 323.549 889.744 326.4 893.262 326.4Z" stroke="#313131" stroke-width="2.51" stroke-miterlimit="10" stroke-linecap="round"></path>
<path d="M148.877 408.241V309.321C148.88 308.372 148.695 307.431 148.334 306.554C147.972 305.676 147.441 304.878 146.771 304.206C146.1 303.534 145.304 303.001 144.427 302.637C143.55 302.273 142.61 302.086 141.661 302.086H106.848C104.933 302.086 103.097 302.846 101.743 304.199C100.389 305.552 99.6275 307.387 99.6262 309.301V314.02" stroke="#313131" stroke-width="2.51" stroke-miterlimit="10" stroke-linecap="round"></path>
<path d="M99.845 326.4C103.364 326.4 106.216 323.549 106.216 320.031C106.216 316.513 103.364 313.661 99.845 313.661C96.3264 313.661 93.4741 316.513 93.4741 320.031C93.4741 323.549 96.3264 326.4 99.845 326.4Z" stroke="#313131" stroke-width="2.51" stroke-miterlimit="10" stroke-linecap="round"></path>
<path d="M890.462 65.6152C890.723 64.6794 890.89 63.72 890.96 62.7511C891.137 60.5259 890.813 58.2892 890.012 56.2055C889.211 54.1217 887.954 52.2437 886.332 50.7095C884.71 49.1753 882.765 48.0237 880.64 47.3394C878.514 46.6551 876.263 46.4554 874.05 46.755C873.711 43.8448 872.762 41.0386 871.266 38.5189C869.771 35.9992 867.761 33.8224 865.369 32.1299C862.977 30.4374 860.255 29.2671 857.381 28.6951C854.507 28.1231 851.544 28.1622 848.686 28.8098C848.45 22.3505 846.044 16.159 841.857 11.2348C837.669 6.31066 831.943 2.94105 825.605 1.66989C819.266 0.398735 812.684 1.3002 806.921 4.22878C801.157 7.15736 796.549 11.9422 793.84 17.8109C790.828 15.716 787.316 14.4525 783.66 14.1478C780.003 13.8431 776.33 14.508 773.013 16.0754C769.695 17.6429 766.85 20.0574 764.764 23.0754C762.677 26.0934 761.424 29.6082 761.131 33.265C761.061 34.14 761.046 35.0185 761.086 35.8954" stroke="#313131" stroke-width="2" stroke-miterlimit="10" stroke-linecap="round"></path>
<path d="M68.0404 71.3681C67.3682 68.9809 67.3006 66.464 67.8439 64.0442C68.3871 61.6244 69.524 59.3778 71.1521 57.5068C72.7803 55.6358 74.8485 54.1993 77.1703 53.3266C79.4922 52.4539 81.9947 52.1726 84.4524 52.508C84.7923 49.5977 85.7409 46.7916 87.2365 44.2719C88.7322 41.7522 90.7414 39.5753 93.1336 37.8828C95.5258 36.1903 98.2475 35.02 101.122 34.448C103.996 33.876 106.958 33.9151 109.816 34.5627C110.052 28.1034 112.458 21.912 116.646 16.9878C120.834 12.0636 126.559 8.69398 132.898 7.42282C139.237 6.15166 145.819 7.05313 151.582 9.98171C157.345 12.9103 161.953 17.6951 164.662 23.5639C167.677 21.4756 171.188 20.2176 174.843 19.9162C178.497 19.6149 182.167 20.2808 185.483 21.8471C188.798 23.4134 191.643 25.8249 193.731 28.8391C195.819 31.8532 197.077 35.3638 197.377 39.018C197.445 39.8947 197.458 40.7749 197.417 41.6533" stroke="#313131" stroke-width="2" stroke-miterlimit="10" stroke-linecap="round"></path>
<path d="M351.257 28.5212C350.904 26.3245 350 24.2532 348.629 22.5004C347.258 20.7477 345.466 19.3706 343.419 18.4978C341.372 17.6249 339.137 17.2847 336.923 17.5089C334.709 17.7331 332.588 18.5143 330.757 19.7798C330.368 18.5508 329.712 17.4227 328.837 16.4754C327.963 15.5281 326.89 14.7849 325.696 14.2985C324.502 13.8121 323.215 13.5944 321.927 13.6608C320.639 13.7273 319.382 14.0763 318.244 14.6831C318.036 12.2151 317 9.88982 315.304 8.08464C313.608 6.27946 311.352 5.10036 308.901 4.73874C306.45 4.37711 303.949 4.85419 301.804 6.09252C299.659 7.33086 297.995 9.25776 297.083 11.5605C295.924 8.13365 293.655 5.19145 290.634 3.20026C287.614 1.20907 284.015 0.282792 280.408 0.568259C276.801 0.853727 273.393 2.3346 270.724 4.77616C268.054 7.21771 266.276 10.4803 265.671 14.0467" stroke="#313131" stroke-width="2" stroke-miterlimit="10" stroke-linecap="round"></path>
<path d="M662.788 51.0156C662.787 49.3047 663.219 47.6214 664.044 46.1225C664.869 44.6236 666.06 43.358 667.507 42.4436C668.953 41.5293 670.607 40.9959 672.315 40.8932C674.023 40.7905 675.73 41.1219 677.275 41.8565C677.419 40.8755 677.778 39.9383 678.324 39.1111C678.871 38.2839 679.593 37.5871 680.439 37.07C681.285 36.5528 682.235 36.228 683.22 36.1186C684.206 36.0091 685.204 36.1177 686.143 36.4366C686.005 34.5415 686.51 32.6552 687.576 31.0822C688.642 29.5092 690.207 28.3411 692.018 27.7665C693.83 27.1919 695.782 27.2443 697.56 27.9151C699.338 28.586 700.839 29.8363 701.819 31.4642C702.273 28.7187 703.632 26.2036 705.679 24.318C707.726 22.4324 710.344 21.2843 713.118 21.0558C715.892 20.8274 718.663 21.5317 720.991 23.057C723.319 24.5822 725.071 26.8412 725.969 29.4753" stroke="#313131" stroke-width="2" stroke-miterlimit="10" stroke-linecap="round"></path>
<path d="M792.284 385.621H850.472V393.08C850.472 397.036 848.9 400.83 846.102 403.628C843.304 406.425 839.509 407.997 835.552 407.997H807.174C803.217 407.997 799.422 406.425 796.624 403.628C793.826 400.83 792.254 397.036 792.254 393.08V385.621H792.284Z" stroke="#313131" stroke-width="1.82" stroke-miterlimit="10" stroke-linecap="round"></path>
<path d="M798.998 385.622C800.234 385.622 801.236 384.62 801.236 383.384C801.236 382.148 800.234 381.146 798.998 381.146C797.762 381.146 796.76 382.148 796.76 383.384C796.76 384.62 797.762 385.622 798.998 385.622Z" stroke="#313131" stroke-width="1.82" stroke-miterlimit="10" stroke-linecap="round"></path>
<path d="M816.902 385.622C818.138 385.622 819.14 384.62 819.14 383.384C819.14 382.148 818.138 381.146 816.902 381.146C815.666 381.146 814.664 382.148 814.664 383.384C814.664 384.62 815.666 385.622 816.902 385.622Z" stroke="#313131" stroke-width="1.82" stroke-miterlimit="10" stroke-linecap="round"></path>
<path d="M839.282 385.622C840.518 385.622 841.52 384.62 841.52 383.384C841.52 382.148 840.518 381.146 839.282 381.146C838.046 381.146 837.044 382.148 837.044 383.384C837.044 384.62 838.046 385.622 839.282 385.622Z" stroke="#313131" stroke-width="1.82" stroke-miterlimit="10" stroke-linecap="round"></path>
<path d="M805.712 381.146C808.184 381.146 810.188 379.142 810.188 376.67C810.188 374.199 808.184 372.195 805.712 372.195C803.24 372.195 801.236 374.199 801.236 376.67C801.236 379.142 803.24 381.146 805.712 381.146Z" stroke="#313131" stroke-width="1.82" stroke-miterlimit="10" stroke-linecap="round"></path>
<path d="M828.092 381.146C830.564 381.146 832.568 379.142 832.568 376.67C832.568 374.199 830.564 372.195 828.092 372.195C825.62 372.195 823.616 374.199 823.616 376.67C823.616 379.142 825.62 381.146 828.092 381.146Z" stroke="#313131" stroke-width="1.82" stroke-miterlimit="10" stroke-linecap="round"></path>
<path d="M845.996 385.622C848.468 385.622 850.472 383.619 850.472 381.147C850.472 378.675 848.468 376.672 845.996 376.672C843.524 376.672 841.52 378.675 841.52 381.147C841.52 383.619 843.524 385.622 845.996 385.622Z" stroke="#313131" stroke-width="1.82" stroke-miterlimit="10" stroke-linecap="round"></path>
<path d="M456.606 52V51.232H457.566V48.55H458.004L456.708 49.306V48.43L457.836 47.77H458.502V51.232H459.402V52H456.606ZM461.056 52.066C460.824 52.066 460.596 52.026 460.372 51.946C460.148 51.862 459.952 51.748 459.784 51.604L460.084 50.914C460.232 51.038 460.388 51.132 460.552 51.196C460.72 51.26 460.89 51.292 461.062 51.292C461.394 51.292 461.646 51.184 461.818 50.968C461.99 50.748 462.076 50.426 462.076 50.002V49.612H462.154C462.126 49.8 462.06 49.962 461.956 50.098C461.852 50.234 461.722 50.338 461.566 50.41C461.414 50.482 461.244 50.518 461.056 50.518C460.816 50.518 460.6 50.46 460.408 50.344C460.22 50.224 460.07 50.06 459.958 49.852C459.85 49.644 459.796 49.41 459.796 49.15C459.796 48.87 459.858 48.622 459.982 48.406C460.106 48.186 460.276 48.014 460.492 47.89C460.708 47.766 460.958 47.704 461.242 47.704C461.79 47.704 462.212 47.89 462.508 48.262C462.804 48.63 462.952 49.152 462.952 49.828C462.952 50.3 462.876 50.704 462.724 51.04C462.576 51.372 462.36 51.626 462.076 51.802C461.792 51.978 461.452 52.066 461.056 52.066ZM461.296 49.792C461.42 49.792 461.53 49.764 461.626 49.708C461.722 49.652 461.796 49.572 461.848 49.468C461.904 49.364 461.932 49.246 461.932 49.114C461.932 48.974 461.904 48.854 461.848 48.754C461.796 48.65 461.722 48.57 461.626 48.514C461.53 48.454 461.42 48.424 461.296 48.424C461.168 48.424 461.056 48.454 460.96 48.514C460.864 48.57 460.79 48.65 460.738 48.754C460.686 48.854 460.66 48.974 460.66 49.114C460.66 49.246 460.686 49.364 460.738 49.468C460.79 49.572 460.864 49.652 460.96 49.708C461.056 49.764 461.168 49.792 461.296 49.792ZM464.995 52.066C464.487 52.066 464.095 51.876 463.819 51.496C463.547 51.112 463.411 50.572 463.411 49.876C463.411 49.168 463.547 48.63 463.819 48.262C464.095 47.89 464.487 47.704 464.995 47.704C465.507 47.704 465.899 47.89 466.171 48.262C466.443 48.63 466.579 49.166 466.579 49.87C466.579 50.57 466.443 51.112 466.171 51.496C465.899 51.876 465.507 52.066 464.995 52.066ZM464.995 51.31C465.227 51.31 465.399 51.196 465.511 50.968C465.627 50.736 465.685 50.37 465.685 49.87C465.685 49.37 465.627 49.01 465.511 48.79C465.399 48.57 465.227 48.46 464.995 48.46C464.763 48.46 464.589 48.57 464.473 48.79C464.361 49.01 464.305 49.368 464.305 49.864C464.305 50.368 464.363 50.736 464.479 50.968C464.595 51.196 464.767 51.31 464.995 51.31ZM468.749 52.066C468.205 52.066 467.785 51.88 467.489 51.508C467.193 51.136 467.045 50.614 467.045 49.942C467.045 49.47 467.121 49.068 467.273 48.736C467.425 48.4 467.641 48.144 467.921 47.968C468.205 47.792 468.545 47.704 468.941 47.704C469.169 47.704 469.395 47.744 469.619 47.824C469.847 47.9 470.045 48.012 470.213 48.16L469.913 48.85C469.765 48.726 469.607 48.634 469.439 48.574C469.271 48.51 469.101 48.478 468.929 48.478C468.601 48.478 468.351 48.586 468.179 48.802C468.007 49.018 467.921 49.34 467.921 49.768V50.158H467.843C467.875 49.966 467.941 49.804 468.041 49.672C468.141 49.536 468.269 49.432 468.425 49.36C468.581 49.288 468.753 49.252 468.941 49.252C469.181 49.252 469.395 49.312 469.583 49.432C469.775 49.548 469.925 49.71 470.033 49.918C470.141 50.122 470.195 50.356 470.195 50.62C470.195 50.9 470.133 51.15 470.009 51.37C469.885 51.586 469.715 51.756 469.499 51.88C469.287 52.004 469.037 52.066 468.749 52.066ZM468.701 51.34C468.829 51.34 468.941 51.312 469.037 51.256C469.133 51.2 469.207 51.12 469.259 51.016C469.311 50.912 469.337 50.792 469.337 50.656C469.337 50.52 469.311 50.402 469.259 50.302C469.207 50.198 469.133 50.118 469.037 50.062C468.941 50.002 468.829 49.972 468.701 49.972C468.573 49.972 468.461 50.002 468.365 50.062C468.269 50.118 468.193 50.198 468.137 50.302C468.085 50.402 468.059 50.52 468.059 50.656C468.059 50.792 468.085 50.912 468.137 51.016C468.193 51.12 468.269 51.2 468.365 51.256C468.461 51.312 468.573 51.34 468.701 51.34ZM472.468 50.698V49.99H474.358V50.698H472.468ZM475.356 52V51.232H476.316V48.55H476.754L475.458 49.306V48.43L476.586 47.77H477.252V51.232H478.152V52H475.356ZM479.806 52.066C479.574 52.066 479.346 52.026 479.122 51.946C478.898 51.862 478.702 51.748 478.534 51.604L478.834 50.914C478.982 51.038 479.138 51.132 479.302 51.196C479.47 51.26 479.64 51.292 479.812 51.292C480.144 51.292 480.396 51.184 480.568 50.968C480.74 50.748 480.826 50.426 480.826 50.002V49.612H480.904C480.876 49.8 480.81 49.962 480.706 50.098C480.602 50.234 480.472 50.338 480.316 50.41C480.164 50.482 479.994 50.518 479.806 50.518C479.566 50.518 479.35 50.46 479.158 50.344C478.97 50.224 478.82 50.06 478.708 49.852C478.6 49.644 478.546 49.41 478.546 49.15C478.546 48.87 478.608 48.622 478.732 48.406C478.856 48.186 479.026 48.014 479.242 47.89C479.458 47.766 479.708 47.704 479.992 47.704C480.54 47.704 480.962 47.89 481.258 48.262C481.554 48.63 481.702 49.152 481.702 49.828C481.702 50.3 481.626 50.704 481.474 51.04C481.326 51.372 481.11 51.626 480.826 51.802C480.542 51.978 480.202 52.066 479.806 52.066ZM480.046 49.792C480.17 49.792 480.28 49.764 480.376 49.708C480.472 49.652 480.546 49.572 480.598 49.468C480.654 49.364 480.682 49.246 480.682 49.114C480.682 48.974 480.654 48.854 480.598 48.754C480.546 48.65 480.472 48.57 480.376 48.514C480.28 48.454 480.17 48.424 480.046 48.424C479.918 48.424 479.806 48.454 479.71 48.514C479.614 48.57 479.54 48.65 479.488 48.754C479.436 48.854 479.41 48.974 479.41 49.114C479.41 49.246 479.436 49.364 479.488 49.468C479.54 49.572 479.614 49.652 479.71 49.708C479.806 49.764 479.918 49.792 480.046 49.792ZM483.655 52.066C483.359 52.066 483.073 52.024 482.797 51.94C482.525 51.856 482.305 51.74 482.137 51.592L482.431 50.896C482.611 51.028 482.801 51.128 483.001 51.196C483.201 51.26 483.407 51.292 483.619 51.292C483.867 51.292 484.053 51.246 484.177 51.154C484.301 51.062 484.363 50.926 484.363 50.746C484.363 50.578 484.303 50.452 484.183 50.368C484.067 50.28 483.893 50.236 483.661 50.236H482.953V49.498H483.577C483.777 49.498 483.937 49.452 484.057 49.36C484.177 49.264 484.237 49.134 484.237 48.97C484.237 48.81 484.181 48.688 484.069 48.604C483.957 48.52 483.795 48.478 483.583 48.478C483.179 48.478 482.819 48.612 482.503 48.88L482.203 48.196C482.383 48.04 482.601 47.92 482.857 47.836C483.117 47.748 483.389 47.704 483.673 47.704C484.129 47.704 484.485 47.806 484.741 48.01C485.001 48.21 485.131 48.49 485.131 48.85C485.131 49.098 485.061 49.312 484.921 49.492C484.781 49.668 484.589 49.786 484.345 49.846V49.768C484.633 49.816 484.857 49.934 485.017 50.122C485.177 50.31 485.257 50.546 485.257 50.83C485.257 51.214 485.113 51.516 484.825 51.736C484.541 51.956 484.151 52.066 483.655 52.066ZM487.499 52.066C486.955 52.066 486.535 51.88 486.239 51.508C485.943 51.136 485.795 50.614 485.795 49.942C485.795 49.47 485.871 49.068 486.023 48.736C486.175 48.4 486.391 48.144 486.671 47.968C486.955 47.792 487.295 47.704 487.691 47.704C487.919 47.704 488.145 47.744 488.369 47.824C488.597 47.9 488.795 48.012 488.963 48.16L488.663 48.85C488.515 48.726 488.357 48.634 488.189 48.574C488.021 48.51 487.851 48.478 487.679 48.478C487.351 48.478 487.101 48.586 486.929 48.802C486.757 49.018 486.671 49.34 486.671 49.768V50.158H486.593C486.625 49.966 486.691 49.804 486.791 49.672C486.891 49.536 487.019 49.432 487.175 49.36C487.331 49.288 487.503 49.252 487.691 49.252C487.931 49.252 488.145 49.312 488.333 49.432C488.525 49.548 488.675 49.71 488.783 49.918C488.891 50.122 488.945 50.356 488.945 50.62C488.945 50.9 488.883 51.15 488.759 51.37C488.635 51.586 488.465 51.756 488.249 51.88C488.037 52.004 487.787 52.066 487.499 52.066ZM487.451 51.34C487.579 51.34 487.691 51.312 487.787 51.256C487.883 51.2 487.957 51.12 488.009 51.016C488.061 50.912 488.087 50.792 488.087 50.656C488.087 50.52 488.061 50.402 488.009 50.302C487.957 50.198 487.883 50.118 487.787 50.062C487.691 50.002 487.579 49.972 487.451 49.972C487.323 49.972 487.211 50.002 487.115 50.062C487.019 50.118 486.943 50.198 486.887 50.302C486.835 50.402 486.809 50.52 486.809 50.656C486.809 50.792 486.835 50.912 486.887 51.016C486.943 51.12 487.019 51.2 487.115 51.256C487.211 51.312 487.323 51.34 487.451 51.34Z" fill="#313131"></path>
</g>
<defs>
<clipPath id="clip0_86_1599">
<rect width="945" height="430" fill="white"></rect>
</clipPath>
</defs>
</svg>
